<?xml version="1.0" encoding="UTF-8" standalone="no"?>
<!-- Created with Inkscape (http://www.inkscape.org/) -->

<svg
   width="140.22917mm"
   height="92.604172mm"
   viewBox="0 0 140.22917 92.604172"
   version="1.1"
   id="svg8"
   inkscape:version="1.1 (c4e8f9e, 2021-05-24)"
   sodipodi:docname="logo.svg"
   xmlns:inkscape="http://www.inkscape.org/namespaces/inkscape"
   xmlns:sodipodi="http://sodipodi.sourceforge.net/DTD/sodipodi-0.dtd"
   xmlns="http://www.w3.org/2000/svg"
   xmlns:svg="http://www.w3.org/2000/svg"
   xmlns:rdf="http://www.w3.org/1999/02/22-rdf-syntax-ns#"
   xmlns:cc="http://creativecommons.org/ns#"
   xmlns:dc="http://purl.org/dc/elements/1.1/">
  <defs
     id="defs2" />
  <sodipodi:namedview
     id="base"
     pagecolor="#ffffff"
     bordercolor="#666666"
     borderopacity="1.0"
     inkscape:pageopacity="0.0"
     inkscape:pageshadow="2"
     inkscape:zoom="0.5"
     inkscape:cx="419"
     inkscape:cy="128"
     inkscape:document-units="mm"
     inkscape:current-layer="layer1"
     showgrid="false"
     inkscape:window-width="1440"
     inkscape:window-height="802"
     inkscape:window-x="0"
     inkscape:window-y="25"
     inkscape:window-maximized="1"
     inkscape:pagecheckerboard="0"
     fit-margin-top="0"
     fit-margin-left="0"
     fit-margin-right="0"
     fit-margin-bottom="0" />
  <metadata
     id="metadata5">
    <rdf:RDF>
      <cc:Work
         rdf:about="">
        <dc:format>image/svg+xml</dc:format>
        <dc:type
           rdf:resource="http://purl.org/dc/dcmitype/StillImage" />
      </cc:Work>
    </rdf:RDF>
  </metadata>
  <g
     inkscape:label="Layer 1"
     inkscape:groupmode="layer"
     id="layer1"
     transform="translate(-32.694939,-153.78482)">
    <g
       id="g826"
       transform="translate(-3.4033203e-7,94.720832)">
      <path
         style="fill:#0eafee;stroke-width:0.142388"
         d="m 149.15242,120.75957 c -7.24342,-1.05654 -12.81434,-3.76872 -18.01267,-8.76939 -2.13803,-2.05672 -5.27797,-6.35931 -7.21924,-9.89235 -2.19079,-3.98717 -3.80586,-8.729091 -2.97307,-8.729091 0.0643,0 0.37022,0.341573 0.6799,0.759051 0.80721,1.08818 0.96873,1.024825 0.87081,-0.341573 -0.0434,-0.605343 -0.10046,-1.181412 -0.12684,-1.280154 -0.0914,-0.342238 0.21388,-3.080491 0.47456,-4.256119 0.14406,-0.649728 0.50655,-1.747127 0.80553,-2.438663 0.8941,-2.068072 1.98232,-3.186207 4.96697,-5.103499 0.3489,-0.224131 0.63437,-0.507103 0.63437,-0.628826 0,-0.162493 -0.16861,-0.221934 -0.63437,-0.223641 -1.4211,-0.0052 -1.19597,-0.562477 0.39191,-0.970089 1.23294,-0.316501 4.56184,-0.321145 6.11873,-0.0085 4.50466,0.904494 8.30921,3.139347 11.48813,6.748307 3.42473,3.888019 5.20582,8.000438 5.20582,12.019881 0,1.836395 -0.23457,2.972406 -0.94625,4.582646 -1.17407,2.65643 -2.65564,4.14615 -4.86727,4.89404 -1.22581,0.41452 -3.28187,0.34883 -4.774,-0.15252 -4.059,-1.36382 -7.90247,-5.14052 -9.71153,-9.542811 -2.39919,-5.838349 -0.52121,-11.114679 4.33963,-12.192528 3.15046,-0.698584 7.21278,1.021907 9.28435,3.932143 1.40262,1.970478 2.14504,4.225611 2.15848,6.55651 0.0148,2.557611 -0.64326,4.042337 -2.40202,5.419866 -0.56577,0.44313 -0.66659,0.76072 -0.26931,0.84836 0.41056,0.0906 1.75,-0.61877 2.2573,-1.19541 1.24936,-1.42018 1.72625,-2.841194 1.72333,-5.135101 -0.004,-3.476646 -0.92547,-5.824319 -3.34081,-8.515552 -1.69157,-1.884788 -3.44787,-2.960818 -6.09748,-3.735743 -3.98848,-1.166503 -7.24578,-0.847332 -9.54621,0.935403 -1.07296,0.831498 -1.8546,1.941325 -2.4192,3.434935 -0.38418,1.01632 -0.42454,1.279575 -0.4726,3.082516 -0.0716,2.686681 0.24858,4.26194 1.34936,6.638254 1.46623,3.165228 4.95485,7.330918 8.08017,9.648368 1.85654,1.37664 4.37184,2.60828 6.23867,3.05483 0.36727,0.0879 0.94979,0.22999 1.29449,0.31587 0.34471,0.0859 1.63682,0.15509 2.87136,0.15381 1.80087,-0.002 2.45585,-0.0627 3.31304,-0.30773 3.99894,-1.14307 7.26097,-4.92198 8.36912,-9.69523 0.35769,-1.540744 0.37958,-4.399632 0.0437,-5.707063 -0.38753,-1.508441 -1.05692,-2.8333 -2.31041,-4.572768 -7.2156,-10.013071 -17.30753,-17.170621 -30.00815,-21.282836 -3.8981,-1.262132 -6.63352,-1.904276 -12.08641,-2.837309 -3.54399,-0.606404 -8.1781,-2.014599 -8.80121,-2.674476 -0.44389,-0.470091 -0.31556,-0.909675 0.38237,-1.309736 0.32774,-0.187865 0.72355,-0.341573 0.87959,-0.341573 0.15604,0 0.78936,0.413071 1.40738,0.917935 0.61803,0.504864 1.5715,1.165238 2.11883,1.467498 0.86397,0.477117 1.11925,0.548541 1.9365,0.541813 0.81768,-0.0067 1.12787,-0.100042 2.36115,-0.710266 1.91692,-0.948482 2.53089,-1.059217 5.22906,-0.943101 6.42094,0.276323 13.11494,1.930575 19.72758,4.875174 4.35308,1.938423 7.32126,3.934515 11.48543,7.723933 2.06194,1.876371 7.06299,7.521479 8.52359,9.62129 2.43122,3.495223 4.31015,7.933824 5.57416,13.167865 0.309,1.279516 0.36406,1.79247 0.35035,3.26392 -0.009,0.9602 -0.0332,1.98492 -0.0538,2.27715 -0.0838,1.18768 0.7841,0.22363 1.13782,-1.2638 0.94339,-3.967027 0.51521,-7.682236 -1.51208,-13.119951 -2.614,-7.011477 -6.59969,-12.252269 -13.92332,-18.307803 -2.25045,-1.860783 -3.69719,-2.847715 -6.53464,-4.457785 -1.37398,-0.779644 -2.53943,-1.493466 -2.58988,-1.586271 -0.13267,-0.244012 0.97714,-0.03179 2.28344,0.436636 5.45,1.95434 12.07245,6.936218 17.23459,12.965089 6.76498,7.900814 10.46629,16.745306 10.47488,25.030265 0.004,3.46691 -0.49546,5.92864 -1.68151,8.2944 -2.47432,4.93549 -6.76994,7.77283 -13.18329,8.70784 -1.44674,0.21092 -5.87752,0.1604 -7.56889,-0.0863 z m 4.25759,-2.6535 c 0.96462,-0.17792 1.66129,-0.52953 1.58152,-0.79819 -0.0374,-0.12579 -0.53805,-0.18323 -1.64452,-0.18867 -1.84191,-0.009 -3.62155,-0.18739 -3.96947,-0.39781 -0.516,-0.31207 -0.21175,-0.77701 0.97635,-1.492 1.2655,-0.76156 1.48163,-1.15946 0.60098,-1.10638 -5.80608,0.34996 -8.21681,0.13196 -11.89959,-1.07608 -2.97715,-0.97657 -4.99468,-2.05816 -4.99468,-2.67762 0,-0.27281 0.092,-0.30169 0.96825,-0.30379 1.00489,-0.002 1.40358,-0.14368 1.24236,-0.44021 -0.0517,-0.0951 -0.58525,-0.45299 -1.18569,-0.79536 -1.74803,-0.99675 -3.36562,-2.34929 -5.14643,-4.30317 -1.46015,-1.60206 -1.84357,-2.13749 -3.17982,-4.44045 -1.36607,-2.354343 -1.70808,-2.801899 -1.93983,-2.538465 -0.10067,0.114439 0.21078,1.520758 0.55021,2.484365 0.47456,1.34724 1.65127,3.56528 3.27036,6.16446 2.90147,4.65784 7.88907,8.41736 13.71169,10.33551 4.17178,1.37431 8.66954,2.01445 11.05831,1.57386 z m 4.87246,-8.10739 c 1.40949,-0.91305 2.10369,-1.58663 2.83374,-2.74957 0.74765,-1.19097 0.98656,-2.14237 0.98861,-3.9368 0.002,-2.0407 -0.65959,-5.541078 -1.04782,-5.541078 -0.0666,0 -0.15111,1.110111 -0.18769,2.466918 -0.0514,1.90559 -0.13157,2.7196 -0.35243,3.57741 -0.54052,2.09932 -1.86377,4.69116 -3.07219,6.01744 -0.97334,1.06827 -0.65328,1.13156 0.83778,0.16568 z M 143.62339,97.733279 c 0.88736,-0.678753 1.46917,-1.598261 1.65496,-2.615551 0.66301,-3.630315 -3.28017,-8.025762 -7.21121,-8.038301 -1.76598,-0.0056 -2.95089,0.990279 -3.47556,2.921179 -0.68953,2.537665 0.17861,5.409517 1.88794,6.245382 0.50144,0.245207 0.85381,0.320087 1.2337,0.262169 1.05911,-0.161479 2.21624,-1.522168 2.22145,-2.612256 0.005,-0.974061 -0.70065,-1.548276 -2.08182,-1.694884 -0.73976,-0.07852 -0.90852,-0.151813 -1.09516,-0.475619 -0.45189,-0.783955 -0.0777,-2.412184 0.65307,-2.841744 0.77799,-0.457316 1.62199,-0.1591 2.97622,1.051602 0.43119,0.385496 0.84859,0.700901 0.92755,0.700901 0.079,0 0.30853,-0.17966 0.51017,-0.399245 0.22581,-0.245921 0.44896,-0.36332 0.58106,-0.305697 0.11795,0.05145 0.40552,0.555606 0.63904,1.120343 0.72978,1.764872 0.55796,3.680786 -0.53084,5.919182 -0.2529,0.51993 -0.42183,1.015211 -0.37539,1.100624 0.16517,0.303785 0.84933,0.148005 1.48482,-0.338085 z m 13.00742,-10.93515 c 0,-0.285907 -1.61308,-3.289891 -2.35952,-4.394049 -1.77821,-2.630378 -4.60827,-5.701991 -7.58819,-8.235849 -4.86621,-4.137799 -11.73666,-7.418072 -19.09976,-9.119106 -4.57774,-1.057559 -10.61735,-1.31803 -10.61735,-0.457896 0,0.257281 2.36382,0.972681 8.2802,2.505967 7.00016,1.814159 10.96715,3.300393 15.42521,5.779057 5.60086,3.114061 10.28769,7.087484 14.03106,11.895322 0.95042,1.220673 1.7731,2.219796 1.82819,2.220273 0.0551,4.55e-4 0.10016,-0.0867 0.10016,-0.193719 z"
         id="path830"
         inkscape:connector-curvature="0"
         sodipodi:nodetypes="ccssccccccscccsscccssccccccssssccsccccccsssccsccccssccsccccsscccccccccccccccsccccccccsccccsccsccscccccccscsccscccscsssssccs" />
      <path
         style="fill:#292526;stroke-width:0.142388"
         d="m 122.50838,151.26779 c -2.01024,-0.17328 -5.51408,-0.81895 -5.58452,-1.02909 -0.0908,-0.27082 0.24445,-2.81264 0.39327,-2.9818 0.0915,-0.10407 0.4569,-0.0991 1.1275,0.0154 0.54564,0.0931 1.38271,0.23554 1.86015,0.31647 0.47745,0.0809 2.29121,0.18323 4.03059,0.22735 3.72229,0.0944 4.28732,-0.0164 5.25533,-1.03067 1.43112,-1.49951 1.27202,-4.98545 -0.27119,-5.94169 -0.44885,-0.27813 -2.07116,-0.54924 -3.33879,-0.55796 -1.36691,-0.009 -4.4522,-0.35737 -5.52991,-0.62368 -2.90522,-0.71791 -4.0526,-2.62101 -4.03825,-6.69807 0.0141,-3.99711 1.21305,-5.92036 4.24553,-6.81014 1.36141,-0.39946 4.91924,-0.55224 7.31657,-0.31418 1.9709,0.19571 4.49599,0.62005 4.66221,0.78348 0.16441,0.16166 -0.14455,2.75059 -0.3571,2.99219 -0.15264,0.17351 -0.39007,0.16948 -1.50398,-0.0255 -2.70182,-0.47299 -3.45499,-0.54569 -5.63522,-0.54393 -3.10581,0.003 -4.08584,0.33257 -4.90072,1.65052 -0.37271,0.60281 -0.40247,0.74833 -0.40208,1.96625 5.3e-4,1.52647 0.27279,2.31017 0.99713,2.86972 0.71903,0.55547 1.27281,0.66427 4.07741,0.80107 4.95035,0.24147 6.52171,0.66441 7.69845,2.07205 0.67005,0.80154 1.04794,1.72426 1.26033,3.0775 0.23705,1.5104 0.23347,2.56759 -0.0142,4.1819 -0.47645,3.10571 -1.78425,4.65647 -4.4961,5.33137 -0.95295,0.23716 -5.26756,0.4081 -6.85242,0.27149 z m 33.72178,-0.006 c -0.85968,-0.0735 -4.39598,-0.62109 -5.07496,-0.78593 -0.41485,-0.10071 -0.47141,-0.17264 -0.50279,-0.63942 -0.0194,-0.28927 0.0455,-1.00415 0.14435,-1.58862 l 0.17969,-1.06267 0.45664,0.023 c 0.48465,0.0244 2.18819,0.2715 3.54373,0.51404 0.44919,0.0804 2.08461,0.14613 3.63427,0.14613 3.25876,0 3.96342,-0.1778 4.84824,-1.22336 1.12452,-1.3288 1.0183,-4.66698 -0.18018,-5.66237 -0.45666,-0.37928 -2.06487,-0.68643 -3.64342,-0.69586 -1.42022,-0.008 -3.58259,-0.24628 -5.07496,-0.55807 -3.14941,-0.658 -4.46435,-2.59775 -4.46453,-6.58592 -1.2e-4,-2.52898 0.49006,-4.23649 1.55344,-5.41126 0.69251,-0.76506 1.3734,-1.15596 2.78267,-1.59755 0.95929,-0.30059 1.38327,-0.33345 4.33529,-0.33604 2.40063,-0.002 3.68103,0.0659 4.80786,0.25538 0.84471,0.14203 1.79037,0.3012 2.10146,0.35372 0.31108,0.0525 0.62813,0.18111 0.70455,0.28578 0.15429,0.21133 -0.17895,2.76543 -0.3925,3.00817 -0.0711,0.0808 -0.71078,0.0347 -1.56728,-0.11293 -0.79597,-0.13717 -1.84943,-0.31572 -2.34103,-0.39678 -0.49159,-0.0811 -1.9052,-0.14736 -3.14135,-0.14736 -2.89403,0 -3.83025,0.25178 -4.6634,1.25414 -0.89821,1.08062 -1.06722,2.75368 -0.43307,4.28693 0.51605,1.2477 1.76092,1.73156 4.47798,1.74048 2.11297,0.007 5.03226,0.37988 6.10388,0.77976 2.46346,0.91926 3.44285,3.14997 3.23893,7.37724 -0.17974,3.72646 -1.41514,5.57091 -4.31194,6.43785 -0.85188,0.25495 -1.53852,0.3212 -3.716,0.35852 -1.46907,0.0252 -3.00158,0.0175 -3.40557,-0.017 z m -120.702651,-1.45264 0.03879,-1.24716 0.853644,-0.24571 c 0.477791,-0.13752 0.933505,-0.36985 1.035025,-0.52767 0.148014,-0.2301 0.181381,-1.95022 0.181381,-9.35054 v -9.06857 l -0.35189,-0.31464 c -0.193539,-0.17305 -0.520167,-0.31464 -0.725839,-0.31464 -0.205673,0 -0.528108,-0.0666 -0.716523,-0.14805 -0.328733,-0.14207 -0.342574,-0.19763 -0.342574,-1.37512 v -1.22707 l 7.846156,0.0519 c 5.261104,0.0348 7.978159,0.10693 8.246811,0.21884 0.22036,0.0918 0.671097,0.25384 1.001637,0.36011 1.837188,0.59066 3.516678,2.3163 4.131173,4.24469 0.546077,1.71368 0.807777,4.17184 0.809126,7.60016 0.0027,6.8408 -0.990923,9.82147 -3.805111,11.41464 -1.872374,1.06 -2.979983,1.17594 -11.233398,1.17594 H 35.48872 Z m 13.862055,-2.15131 c 2.356618,-0.37973 3.482598,-1.29635 4.140542,-3.37066 0.327704,-1.03315 0.332751,-1.12061 0.332138,-5.75521 -5.34e-4,-4.09278 -0.03166,-4.81761 -0.238742,-5.56162 -0.495386,-1.77981 -1.306167,-2.70377 -2.917227,-3.32446 -0.778002,-0.29974 -1.210733,-0.33448 -5.111565,-0.41036 -4.025138,-0.0783 -4.271539,-0.0675 -4.44059,0.19534 -0.144727,0.22499 -0.178982,1.95975 -0.178982,9.06419 0,5.76607 0.04752,8.88688 0.13825,9.07959 0.131239,0.27875 0.312414,0.29349 3.572505,0.29069 2.148424,-0.002 3.909541,-0.0795 4.703671,-0.2075 z m 10.177197,2.14848 0.03882,-1.25488 0.80131,-0.23085 c 0.99739,-0.28733 1.181136,-0.41318 1.436144,-0.98363 0.688997,-1.54128 6.643727,-17.57728 6.643727,-17.89146 0,-0.47891 -0.08174,-0.53516 -1.033091,-0.71084 -0.453946,-0.0838 -0.838359,-0.24835 -0.936795,-0.40093 -0.184448,-0.28592 -0.224814,-1.83561 -0.0557,-2.13844 0.08355,-0.14961 1.073951,-0.18305 4.497004,-0.15181 l 4.389856,0.0401 1.025257,2.88439 c 0.563891,1.58642 2.272681,6.45635 3.797311,10.82208 3.056736,8.75285 2.76181,8.1508 4.178199,8.52924 0.235306,0.0629 0.60447,0.19116 0.779478,0.22625 0.07596,0.0152 0.05957,0.0425 0.07819,0.2187 0.0097,0.28628 0.147654,1.83387 -0.0036,2.10483 -0.08328,0.14914 -0.928964,0.18319 -3.770787,0.15181 l -3.663433,-0.0404 v -1.20909 -1.20909 l 0.734534,-0.25081 c 0.536125,-0.18307 0.745364,-0.33226 0.774632,-0.55232 0.05551,-0.41741 -0.997961,-3.56699 -1.270998,-3.79991 -0.169456,-0.14456 -1.517174,-0.18976 -5.657738,-0.18976 -4.984146,0 -5.4578,0.022 -5.70643,0.26567 -0.328247,0.32162 -1.390744,3.29565 -1.334424,3.73517 0.03024,0.236 0.221087,0.37251 0.77466,0.5541 l 0.734533,0.24096 v 1.20754 1.20754 l -3.644716,0.0404 -3.644718,0.0404 z m 17.333754,-9.27089 c 0,-0.17105 -1.165037,-3.58682 -3.266944,-9.57835 -0.319194,-0.90987 -0.675693,-1.78088 -0.792221,-1.93558 -0.268339,-0.35625 -0.644926,-0.35962 -0.924637,-0.008 -0.236036,0.29648 -4.097706,11.13111 -4.097706,11.49687 0,0.19193 0.635007,0.22314 4.540754,0.22314 3.641825,0 4.540754,-0.0392 4.540754,-0.19779 z m 10.578528,9.27814 0.03882,-1.24756 0.817422,-0.235 c 1.379797,-0.39668 1.252628,0.59333 1.252628,-9.7517 0,-5.8492 -0.04829,-9.20256 -0.135175,-9.38711 -0.07843,-0.16659 -0.344722,-0.32708 -0.63437,-0.38233 -0.274558,-0.0524 -0.696944,-0.16399 -0.938638,-0.24804 l -0.439442,-0.15283 0.03879,-1.16273 0.03879,-1.16273 h 4.522596 4.522595 l 4.465261,10.70261 c 2.45589,5.88644 4.56396,10.78801 4.6846,10.89238 0.29747,0.25735 0.64044,0.23862 0.89328,-0.0488 0.18611,-0.21155 0.20987,-1.26635 0.20987,-9.31773 0,-7.43413 -0.0326,-9.10997 -0.18018,-9.24916 -0.0991,-0.0935 -0.47472,-0.23376 -0.8347,-0.31171 -1.15419,-0.24992 -1.12194,-0.20551 -1.12194,-1.54525 v -1.19824 h 3.72515 c 3.27366,0 3.73498,0.0291 3.80622,0.24013 0.14384,0.42608 0.0861,1.8197 -0.0859,2.07383 -0.0918,0.13566 -0.52475,0.31976 -0.96207,0.40911 -0.43732,0.0893 -0.85801,0.2339 -0.93486,0.32123 -0.0934,0.10614 -0.16187,3.76718 -0.20651,11.04362 l -0.0668,10.88484 -3.35395,0.0405 c -2.5839,0.0312 -3.3837,-0.004 -3.48354,-0.15181 -0.0713,-0.10577 -2.13548,-5.03343 -4.587118,-10.95035 -3.081197,-7.4363 -4.551938,-10.82833 -4.763273,-10.98574 -0.273738,-0.20388 -0.340678,-0.20169 -0.639614,0.021 l -0.333879,0.24868 v 9.24607 c 0,7.68157 0.03134,9.2817 0.185237,9.45664 0.101881,0.11581 0.517925,0.29519 0.924542,0.39863 0.406615,0.10344 0.806913,0.28067 0.889549,0.39386 0.08874,0.12153 0.13397,0.6309 0.110485,1.24417 l -0.03976,1.03838 -3.711492,0.0404 -3.711492,0.0404 z m 50.749607,-0.002 0.0388,-1.2495 0.81621,-0.23491 c 1.38212,-0.3978 1.25384,0.6051 1.25384,-9.80285 0,-9.92859 0.0294,-9.52769 -0.71048,-9.69926 -0.16014,-0.0371 -0.53155,-0.12501 -0.82536,-0.19528 l -0.53421,-0.12776 -0.0388,-1.24948 -0.0388,-1.24949 3.84504,0.0403 3.84504,0.0403 0.04,1.04762 c 0.0234,0.61502 -0.0202,1.11653 -0.10567,1.21449 -0.0801,0.0918 -0.51747,0.26933 -0.97194,0.39457 -0.63763,0.17572 -0.86465,0.31438 -0.99416,0.60724 -0.26126,0.59076 -0.24541,17.76681 0.0169,18.34346 0.15366,0.33777 0.33694,0.44959 0.98714,0.60225 0.43915,0.1031 0.86794,0.28264 0.95287,0.39896 0.0934,0.12799 0.13872,0.62152 0.11466,1.24989 l -0.0398,1.03838 -3.84504,0.0403 -3.84504,0.0403 0.0388,-1.2495 z"
         id="path828"
         inkscape:connector-curvature="0"
         sodipodi:nodetypes="ccccccsccccsccccccccccccccccccccccsccccccscccccccsccccccccccccsccscscsccsccsccccccsscsccccccssccccccscscccccccccscccccccccssccsssscccsccccccccsccsccscsccccccscccccscccccccccccscccccccccccccccccccc" />
    </g>
  </g>
</svg>
