<?xml version="1.0" encoding="utf-8"?>
<!-- Generator: Adobe Illustrator 27.2.0, SVG Export Plug-In . SVG Version: 6.00 Build 0)  -->
<svg version="1.1"
	 id="svg8" xmlns:dc="http://purl.org/dc/elements/1.1/" xmlns:svg="http://www.w3.org/2000/svg" xmlns:cc="http://creativecommons.org/ns#" xmlns:sodipodi="http://sodipodi.sourceforge.net/DTD/sodipodi-0.dtd" xmlns:inkscape="http://www.inkscape.org/namespaces/inkscape" xmlns:rdf="http://www.w3.org/1999/02/22-rdf-syntax-ns#" sodipodi:docname="logo.svg"
	 xmlns="http://www.w3.org/2000/svg" xmlns:xlink="http://www.w3.org/1999/xlink" x="0px" y="0px" viewBox="0 0 372.8 123.2"
	 style="enable-background:new 0 0 372.8 123.2;" xml:space="preserve">
<style type="text/css">
	.st0{fill:#0EAFEE;}
	.st1{fill:#292526;}
</style>
<sodipodi:namedview  bordercolor="#666666" borderopacity="1.0" fit-margin-bottom="0" fit-margin-left="0" fit-margin-right="0" fit-margin-top="0" id="base" inkscape:current-layer="layer1" inkscape:cx="419" inkscape:cy="128" inkscape:document-units="mm" inkscape:pagecheckerboard="0" inkscape:pageopacity="0.0" inkscape:pageshadow="2" inkscape:window-height="802" inkscape:window-maximized="1" inkscape:window-width="1440" inkscape:window-x="0" inkscape:window-y="25" inkscape:zoom="0.5" pagecolor="#ffffff" showgrid="false">
	</sodipodi:namedview>
<g id="layer1" transform="translate(-32.694939,-153.78482)" inkscape:groupmode="layer" inkscape:label="Layer 1">
	<g id="g826" transform="translate(-3.4033203e-7,94.720832)">
		
			<path id="path830" inkscape:connector-curvature="0" sodipodi:nodetypes="ccssccccccscccsscccssccccccssssccsccccccsssccsccccssccsccccsscccccccccccccccsccccccccsccccsccsccscccccccscsccscccscsssssccs" class="st0" d="
			M355.8,177c-14.1-2.1-24.9-7.3-35-17c-4.2-4-10.3-12.4-14-19.2c-4.3-7.7-7.4-17-5.8-17c0.1,0,0.7,0.7,1.3,1.5
			c1.6,2.1,1.9,2,1.7-0.7c-0.1-1.2-0.2-2.3-0.2-2.5c-0.2-0.7,0.4-6,0.9-8.3c0.3-1.3,1-3.4,1.6-4.7c1.7-4,3.9-6.2,9.7-9.9
			c0.7-0.4,1.2-1,1.2-1.2c0-0.3-0.3-0.4-1.2-0.4c-2.8,0-2.3-1.1,0.8-1.9c2.4-0.6,8.9-0.6,11.9,0c8.8,1.8,16.2,6.1,22.3,13.1
			c6.7,7.6,10.1,15.6,10.1,23.4c0,3.6-0.5,5.8-1.8,8.9c-2.3,5.2-5.2,8.1-9.5,9.5c-2.4,0.8-6.4,0.7-9.3-0.3
			c-7.9-2.7-15.4-10-18.9-18.5c-4.7-11.3-1-21.6,8.4-23.7c6.1-1.4,14,2,18,7.6c2.7,3.8,4.2,8.2,4.2,12.7c0,5-1.3,7.9-4.7,10.5
			c-1.1,0.9-1.3,1.5-0.5,1.6c0.8,0.2,3.4-1.2,4.4-2.3c2.4-2.8,3.4-5.5,3.3-10c0-6.8-1.8-11.3-6.5-16.6c-3.3-3.7-6.7-5.8-11.9-7.3
			c-7.8-2.3-14.1-1.6-18.6,1.8c-2.1,1.6-3.6,3.8-4.7,6.7c-0.7,2-0.8,2.5-0.9,6c-0.1,5.2,0.5,8.3,2.6,12.9
			c2.8,6.2,9.6,14.2,15.7,18.8c3.6,2.7,8.5,5.1,12.1,5.9c0.7,0.2,1.8,0.4,2.5,0.6c0.7,0.2,3.2,0.3,5.6,0.3c3.5,0,4.8-0.1,6.4-0.6
			c7.8-2.2,14.1-9.6,16.3-18.8c0.7-3,0.7-8.6,0.1-11.1c-0.8-2.9-2.1-5.5-4.5-8.9c-14-19.5-33.6-33.4-58.3-41.4
			c-7.6-2.5-12.9-3.7-23.5-5.5c-6.9-1.2-15.9-3.9-17.1-5.2c-0.9-0.9-0.6-1.8,0.7-2.5c0.6-0.4,1.4-0.7,1.7-0.7c0.3,0,1.5,0.8,2.7,1.8
			c1.2,1,3.1,2.3,4.1,2.9c1.7,0.9,2.2,1.1,3.8,1.1c1.6,0,2.2-0.2,4.6-1.4c3.7-1.8,4.9-2.1,10.2-1.8c12.5,0.5,25.5,3.8,38.3,9.5
			c8.5,3.8,14.2,7.6,22.3,15c4,3.6,13.7,14.6,16.6,18.7c4.7,6.8,8.4,15.4,10.8,25.6c0.6,2.5,0.7,3.5,0.7,6.3c0,1.9-0.1,3.9-0.1,4.4
			c-0.2,2.3,1.5,0.4,2.2-2.5c1.8-7.7,1-14.9-2.9-25.5c-5.1-13.6-12.8-23.8-27.1-35.6c-4.4-3.6-7.2-5.5-12.7-8.7
			c-2.7-1.5-4.9-2.9-5-3.1c-0.3-0.5,1.9-0.1,4.4,0.8c10.6,3.8,23.5,13.5,33.5,25.2c13.1,15.4,20.3,32.5,20.4,48.7
			c0,6.7-1,11.5-3.3,16.1c-4.8,9.6-13.2,15.1-25.6,16.9C367.7,177.6,359.1,177.5,355.8,177L355.8,177z M364.1,171.8
			c1.9-0.3,3.2-1,3.1-1.6c-0.1-0.2-1-0.4-3.2-0.4c-3.6,0-7-0.4-7.7-0.8c-1-0.6-0.4-1.5,1.9-2.9c2.5-1.5,2.9-2.3,1.2-2.2
			c-11.3,0.7-16,0.3-23.1-2.1c-5.8-1.9-9.7-4-9.7-5.2c0-0.5,0.2-0.6,1.9-0.6c2,0,2.7-0.3,2.4-0.9c-0.1-0.2-1.1-0.9-2.3-1.5
			c-3.4-1.9-6.5-4.6-10-8.4c-2.8-3.1-3.6-4.2-6.2-8.6c-2.7-4.6-3.3-5.4-3.8-4.9c-0.2,0.2,0.4,3,1.1,4.8c0.9,2.6,3.2,6.9,6.4,12
			c5.6,9.1,15.3,16.4,26.7,20.1C350.7,171.5,359.4,172.7,364.1,171.8L364.1,171.8z M373.6,156.1c2.7-1.8,4.1-3.1,5.5-5.3
			c1.5-2.3,1.9-4.2,1.9-7.7c0-4-1.3-10.8-2-10.8c-0.1,0-0.3,2.2-0.4,4.8c-0.1,3.7-0.3,5.3-0.7,7c-1.1,4.1-3.6,9.1-6,11.7
			C370,157.8,370.7,158,373.6,156.1L373.6,156.1z M345.1,132.3c1.7-1.3,2.9-3.1,3.2-5.1c1.3-7.1-6.4-15.6-14-15.6
			c-3.4,0-5.7,1.9-6.8,5.7c-1.3,4.9,0.3,10.5,3.7,12.1c1,0.5,1.7,0.6,2.4,0.5c2.1-0.3,4.3-3,4.3-5.1c0-1.9-1.4-3-4-3.3
			c-1.4-0.2-1.8-0.3-2.1-0.9c-0.9-1.5-0.2-4.7,1.3-5.5c1.5-0.9,3.2-0.3,5.8,2c0.8,0.7,1.6,1.4,1.8,1.4c0.2,0,0.6-0.3,1-0.8
			c0.4-0.5,0.9-0.7,1.1-0.6c0.2,0.1,0.8,1.1,1.2,2.2c1.4,3.4,1.1,7.2-1,11.5c-0.5,1-0.8,2-0.7,2.1
			C342.5,133.5,343.8,133.2,345.1,132.3L345.1,132.3z M370.4,111c0-0.6-3.1-6.4-4.6-8.5c-3.5-5.1-9-11.1-14.7-16
			c-9.5-8-22.8-14.4-37.1-17.7c-8.9-2.1-20.6-2.6-20.6-0.9c0,0.5,4.6,1.9,16.1,4.9c13.6,3.5,21.3,6.4,30,11.2
			c10.9,6.1,20,13.8,27.3,23.1c1.8,2.4,3.4,4.3,3.6,4.3C370.3,111.4,370.4,111.2,370.4,111L370.4,111z"/>
		
			<path id="path828" inkscape:connector-curvature="0" sodipodi:nodetypes="ccccccsccccsccccccccccccccccccccccsccccccscccccccsccccccccccccsccscscsccsccsccccccsscsccccccssccccccscscccccccccscccccccccssccsssscccsccccccccsccsccscsccccccscccccscccccccccccscccccccccccccccccccc" class="st1" d="
			M202.5,151.5c-3.8-0.3-10.5-1.6-10.6-2c-0.2-0.5,0.5-5.4,0.7-5.7c0.2-0.2,0.9-0.2,2.1,0c1,0.2,2.6,0.4,3.5,0.6
			c0.9,0.2,4.4,0.3,7.7,0.4c7.1,0.2,8.2,0,10-2c2.7-2.9,2.4-9.5-0.5-11.3c-0.9-0.5-3.9-1-6.4-1.1c-2.6,0-8.5-0.7-10.5-1.2
			c-5.5-1.4-7.7-5-7.7-12.7c0-7.6,2.3-11.3,8.1-13c2.6-0.8,9.4-1.1,13.9-0.6c3.8,0.4,8.6,1.2,8.9,1.5c0.3,0.3-0.3,5.2-0.7,5.7
			c-0.3,0.3-0.7,0.3-2.9,0c-5.1-0.9-6.6-1-10.7-1c-5.9,0-7.8,0.6-9.3,3.1c-0.7,1.1-0.8,1.4-0.8,3.7c0,2.9,0.5,4.4,1.9,5.5
			c1.4,1.1,2.4,1.3,7.8,1.5c9.4,0.5,12.4,1.3,14.7,3.9c1.3,1.5,2,3.3,2.4,5.9c0.5,2.9,0.4,4.9,0,8c-0.9,5.9-3.4,8.9-8.6,10.1
			C213.7,151.4,205.5,151.8,202.5,151.5L202.5,151.5z M266.7,151.5c-1.6-0.1-8.4-1.2-9.7-1.5c-0.8-0.2-0.9-0.3-1-1.2
			c0-0.6,0.1-1.9,0.3-3l0.3-2l0.9,0c0.9,0,4.2,0.5,6.7,1c0.9,0.2,4,0.3,6.9,0.3c6.2,0,7.5-0.3,9.2-2.3c2.1-2.5,1.9-8.9-0.3-10.8
			c-0.9-0.7-3.9-1.3-6.9-1.3c-2.7,0-6.8-0.5-9.7-1.1c-6-1.3-8.5-4.9-8.5-12.5c0-4.8,0.9-8.1,3-10.3c1.3-1.5,2.6-2.2,5.3-3
			c1.8-0.6,2.6-0.6,8.3-0.6c4.6,0,7,0.1,9.2,0.5c1.6,0.3,3.4,0.6,4,0.7c0.6,0.1,1.2,0.3,1.3,0.5c0.3,0.4-0.3,5.3-0.7,5.7
			c-0.1,0.2-1.4,0.1-3-0.2c-1.5-0.3-3.5-0.6-4.5-0.8c-0.9-0.2-3.6-0.3-6-0.3c-5.5,0-7.3,0.5-8.9,2.4c-1.7,2.1-2,5.2-0.8,8.2
			c1,2.4,3.4,3.3,8.5,3.3c4,0,9.6,0.7,11.6,1.5c4.7,1.7,6.6,6,6.2,14c-0.3,7.1-2.7,10.6-8.2,12.3c-1.6,0.5-2.9,0.6-7.1,0.7
			C270.3,151.6,267.4,151.6,266.7,151.5L266.7,151.5z M36.9,148.7l0.1-2.4l1.6-0.5c0.9-0.3,1.8-0.7,2-1c0.3-0.4,0.3-3.7,0.3-17.8
			v-17.3l-0.7-0.6c-0.4-0.3-1-0.6-1.4-0.6c-0.4,0-1-0.1-1.4-0.3c-0.6-0.3-0.7-0.4-0.7-2.6v-2.3l14.9,0.1c10,0.1,15.2,0.2,15.7,0.4
			c0.4,0.2,1.3,0.5,1.9,0.7c3.5,1.1,6.7,4.4,7.9,8.1c1,3.3,1.5,7.9,1.5,14.5c0,13-1.9,18.7-7.2,21.7c-3.6,2-5.7,2.2-21.4,2.2H36.9
			L36.9,148.7z M63.3,144.6c4.5-0.7,6.6-2.5,7.9-6.4c0.6-2,0.6-2.1,0.6-11c0-7.8-0.1-9.2-0.5-10.6c-0.9-3.4-2.5-5.1-5.6-6.3
			c-1.5-0.6-2.3-0.6-9.7-0.8c-7.7-0.1-8.1-0.1-8.5,0.4c-0.3,0.4-0.3,3.7-0.3,17.3c0,11,0.1,16.9,0.3,17.3c0.2,0.5,0.6,0.6,6.8,0.6
			C58.5,145,61.8,144.9,63.3,144.6L63.3,144.6z M82.7,148.7l0.1-2.4l1.5-0.4c1.9-0.5,2.2-0.8,2.7-1.9c1.3-2.9,12.6-33.5,12.6-34.1
			c0-0.9-0.2-1-2-1.4c-0.9-0.2-1.6-0.5-1.8-0.8c-0.4-0.5-0.4-3.5-0.1-4.1c0.2-0.3,2-0.3,8.6-0.3l8.4,0.1l2,5.5
			c1.1,3,4.3,12.3,7.2,20.6c5.8,16.7,5.3,15.5,8,16.2c0.4,0.1,1.2,0.4,1.5,0.4c0.1,0,0.1,0.1,0.1,0.4c0,0.5,0.3,3.5,0,4
			c-0.2,0.3-1.8,0.3-7.2,0.3l-7-0.1v-2.3v-2.3l1.4-0.5c1-0.3,1.4-0.6,1.5-1.1c0.1-0.8-1.9-6.8-2.4-7.2c-0.3-0.3-2.9-0.4-10.8-0.4
			c-9.5,0-10.4,0-10.9,0.5c-0.6,0.6-2.6,6.3-2.5,7.1c0.1,0.4,0.4,0.7,1.5,1.1l1.4,0.5v2.3v2.3l-6.9,0.1l-6.9,0.1L82.7,148.7z
			 M115.7,131.1c0-0.3-2.2-6.8-6.2-18.2c-0.6-1.7-1.3-3.4-1.5-3.7c-0.5-0.7-1.2-0.7-1.8,0c-0.4,0.6-7.8,21.2-7.8,21.9
			c0,0.4,1.2,0.4,8.6,0.4C114,131.5,115.7,131.4,115.7,131.1L115.7,131.1z M135.8,148.7l0.1-2.4l1.6-0.4c2.6-0.8,2.4,1.1,2.4-18.6
			c0-11.1-0.1-17.5-0.3-17.9c-0.1-0.3-0.7-0.6-1.2-0.7c-0.5-0.1-1.3-0.3-1.8-0.5l-0.8-0.3l0.1-2.2l0.1-2.2h8.6h8.6l8.5,20.4
			c4.7,11.2,8.7,20.5,8.9,20.7c0.6,0.5,1.2,0.5,1.7-0.1c0.4-0.4,0.4-2.4,0.4-17.7c0-14.1-0.1-17.3-0.3-17.6
			c-0.2-0.2-0.9-0.4-1.6-0.6c-2.2-0.5-2.1-0.4-2.1-2.9v-2.3h7.1c6.2,0,7.1,0.1,7.2,0.5c0.3,0.8,0.2,3.5-0.2,3.9
			c-0.2,0.3-1,0.6-1.8,0.8c-0.8,0.2-1.6,0.4-1.8,0.6c-0.2,0.2-0.3,7.2-0.4,21l-0.1,20.7l-6.4,0.1c-4.9,0.1-6.4,0-6.6-0.3
			c-0.1-0.2-4.1-9.6-8.7-20.8c-5.9-14.2-8.7-20.6-9.1-20.9c-0.5-0.4-0.6-0.4-1.2,0l-0.6,0.5v17.6c0,14.6,0.1,17.7,0.4,18
			c0.2,0.2,1,0.6,1.8,0.8s1.5,0.5,1.7,0.7c0.2,0.2,0.3,1.2,0.2,2.4l-0.1,2l-7.1,0.1l-7.1,0.1L135.8,148.7z M232.4,148.7l0.1-2.4
			l1.6-0.4c2.6-0.8,2.4,1.2,2.4-18.7c0-18.9,0.1-18.1-1.4-18.5c-0.3-0.1-1-0.2-1.6-0.4l-1-0.2l-0.1-2.4l-0.1-2.4l7.3,0.1l7.3,0.1
			l0.1,2c0,1.2,0,2.1-0.2,2.3c-0.2,0.2-1,0.5-1.8,0.8c-1.2,0.3-1.6,0.6-1.9,1.2c-0.5,1.1-0.5,33.8,0,34.9c0.3,0.6,0.6,0.9,1.9,1.1
			c0.8,0.2,1.7,0.5,1.8,0.8c0.2,0.2,0.3,1.2,0.2,2.4l-0.1,2l-7.3,0.1l-7.3,0.1L232.4,148.7L232.4,148.7z"/>
	</g>
</g>
</svg>
