<?xml version="1.0" encoding="UTF-8" standalone="no"?>
<!-- Created with Inkscape (http://www.inkscape.org/) -->

<svg
   version="1.1"
   id="svg499"
   width="750"
   height="750"
   viewBox="0 0 750 750"
   xmlns="http://www.w3.org/2000/svg"
   xmlns:svg="http://www.w3.org/2000/svg">
  <defs
     id="defs503" />
  <g
     id="g505">
    <path
       style="fill:#000000"
       d="m 30.784382,424.48277 c -7.739169,-1.96957 -12.275436,-8.17787 -12.275436,-16.80006 0,-5.59107 1.381105,-9.31513 4.773232,-12.87073 3.9839,-4.17589 10.72849,-5.72649 24.908269,-5.72649 h 12.318499 l -0.0037,-6.25 c -0.0044,-7.26084 -2.20475,-11.77219 -6.934844,-14.21822 -7.498725,-3.87774 -19.574798,-2.65709 -25.139487,2.54111 -2.926227,2.73351 -3.192756,2.79579 -5.498631,1.28492 -3.05538,-2.00196 -3.032209,-2.40043 0.326662,-5.61767 4.488242,-4.29899 9.268458,-5.74014 19.039743,-5.74014 14.564837,0 21.658562,3.75173 24.166251,12.78106 0.576252,2.07488 1.035318,14.21826 1.038429,27.46894 l 0.0056,23.75 h -3.5 c -3.244605,0 -3.5,-0.2254 -3.5,-3.08889 v -3.0889 l -3.029437,2.54911 c -1.66619,1.402 -4.585385,2.841 -6.487099,3.19776 -5.759338,1.08046 -15.616744,0.99666 -20.208028,-0.1718 z m 23.042276,-7.12879 c 4.602655,-2.65623 6.678883,-7.47904 6.680734,-15.51849 l 0.0016,-6.75 H 47.156829 c -12.252539,0 -13.63194,0.1883 -16.75,2.28656 -4.378826,2.94667 -6.328666,8.39992 -4.900217,13.70477 1.172503,4.35434 2.529085,5.69369 7.742858,7.64448 4.958802,1.85539 16.298615,1.10188 20.577188,-1.36732 z m 94.196472,7.49865 c -8.33967,-1.74642 -14.89245,-8.73963 -17.51941,-18.69693 -1.65867,-6.28706 -1.4567,-20.97035 0.37503,-27.26518 1.82791,-6.28167 5.1861,-11.11639 10.19879,-14.68297 2.96613,-2.11043 5.05008,-2.66493 11.17853,-2.97441 9.7404,-0.49186 14.0884,0.89383 19.17283,6.11033 4.8455,4.97138 8.08005,13.91731 8.08005,22.34736 v 5.39466 h -22.12781 -22.12781 l 0.61904,3.75 c 1.17392,7.11131 2.60511,10.76169 5.68149,14.4911 6.30488,7.64323 19.51051,8.47314 28.58909,1.79667 l 3.91999,-2.88279 2.47301,1.93976 2.473,1.93976 -3,2.5736 c -6.68924,5.73846 -18.05234,8.23922 -27.98582,6.15904 z m 24.48024,-38.51714 c -0.0253,-12.46318 -11.59473,-22.48397 -22.26708,-19.28646 -7.75249,2.32271 -12.55767,8.47237 -14.28855,18.28646 l -0.66137,3.75 h 18.61129 18.61129 l -0.006,-2.75 z m 400.32153,38.47704 c -4.86886,-1.02062 -10.19128,-5.1844 -11.92206,-9.32674 -1.67656,-4.01258 -1.82657,-12.6896 -0.2717,-15.71604 4.20561,-8.18594 10.88369,-10.68426 28.55931,-10.68426 h 12.3185 l -0.004,-6.25 c -0.004,-7.26084 -2.20471,-11.77219 -6.9348,-14.21822 -7.59531,-3.92768 -19.47895,-2.68545 -24.88654,2.60146 -2.97135,2.90505 -3.13018,2.94218 -5.61637,1.31317 -1.40694,-0.92204 -2.55829,-2.03467 -2.55829,-2.47253 0,-1.28005 6.21689,-6.15832 9.71788,-7.62542 5.00611,-2.09782 21.11688,-1.77989 26.44921,0.52195 9.84626,4.2504 10.73379,7.36644 10.78902,37.87959 l 0.0439,24.25 h -3.5 c -3.06667,0 -3.5,-0.30952 -3.5,-2.5 0,-2.80569 -1.15942,-3.21777 -2.95755,-1.05115 -2.71009,3.26545 -17.06267,5.09433 -25.7265,3.27819 z m 22.25206,-7.76907 c 4.88833,-3.02115 6.43199,-6.59911 6.43199,-14.90831 v -7.04966 l -13.25,0.004 c -11.35562,0.003 -13.70553,0.2815 -16.43618,1.94649 -3.56541,2.17399 -5.00882,4.35693 -5.32271,8.04977 -0.65573,7.71474 1.30582,11.24069 7.54718,13.56629 5.53949,2.06406 16.43606,1.23072 21.02972,-1.60832 z M 241.50895,393.08549 v -32 h 3.5 c 3.36496,0 3.5,0.14177 3.5,3.67431 v 3.67432 l 2.26365,-2.12659 c 5.809,-5.45728 19.21321,-7.06006 26.77619,-3.20172 4.3456,2.21696 4.89782,3.82113 2.16636,6.29307 -1.66368,1.50561 -2.1475,1.44431 -6.66948,-0.84501 -5.79021,-2.93138 -8.67023,-3.05195 -14.03672,-0.58765 -9.33949,4.28871 -10.40063,7.87817 -10.45611,35.36927 l -0.0439,21.75 h -3.5 -3.5 z m 251,30.24845 c -2.27786,-1.13792 -4.28566,-3.30646 -5.75,-6.21034 -2.14119,-4.24612 -2.25,-5.58807 -2.25,-27.75 v -23.28811 h -4.56955 c -4.16681,0 -4.54139,-0.19831 -4.25,-2.25 0.26564,-1.87042 1.03653,-2.30187 4.56955,-2.5575 l 4.25,-0.3075 v -9.9425 -9.9425 h 3.5 3.5 v 10 10 h 7 c 6.8,0 7,0.0714 7,2.5 0,2.42857 -0.2,2.5 -7,2.5 h -7 v 23.57692 23.57693 l 2.92308,2.92307 c 2.27479,2.2748 3.82726,2.92308 7,2.92308 3.86324,0 4.07692,0.15723 4.07692,3 0,2.9125 -0.13854,2.99995 -4.75,2.99845 -2.6125,-8.6e-4 -6.325,-0.78836 -8.25,-1.75 z m 181,-45.24845 v -47 h 3.5 3.5 l 0.0426,32.75 0.0426,32.75 3.70737,-4.12097 c 2.03905,-2.26653 9.06051,-10.25403 15.60325,-17.75 11.42564,-13.09019 12.04833,-13.62903 15.75007,-13.62903 2.11976,0 3.85411,0.33756 3.85411,0.75014 0,0.41258 -4.275,5.57157 -9.5,11.46442 -5.225,5.89286 -9.49736,11.29279 -9.49414,11.99986 0.003,0.70707 5.17818,9.38558 11.49991,19.28558 6.32172,9.9 11.49409,18.5625 11.49414,19.25 5e-5,0.75788 -1.35485,1.25 -3.4415,1.25 -3.36549,0 -3.65625,-0.34824 -13.15027,-15.75 -5.33978,-8.6625 -10.31048,-16.40334 -11.04601,-17.20188 -1.50758,-1.63672 -0.93755,-2.1211 -10.11213,8.59268 l -5.25,6.13077 v 9.11422 9.11421 h -3.5 -3.5 z m -296.80986,44.11049 c 3.12958,-1.02838 10.94003,-4.65099 17.35656,-8.05024 10.5928,-5.61169 13.60118,-6.69639 12.1388,-4.37678 -0.28313,0.44909 -6.06569,3.6717 -12.85014,7.16134 -9.07267,4.66662 -13.65785,6.44938 -17.33536,6.74014 l -5,0.39533 z m 16.61319,-2.24589 c 2.91684,-1.7002 5.50659,-2.88801 5.75501,-2.63959 0.50764,0.50764 -8.84741,5.78728 -10.19367,5.75293 -0.47557,-0.0121 1.52183,-1.41314 4.43866,-3.11334 z m -31.80333,-0.8646 c 0,-0.55 2.3625,-1.011 5.25,-1.02445 8.53483,-0.0397 13.47342,-1.69346 27.72351,-9.28343 16.17888,-8.61729 15.02649,-8.09285 15.02649,-6.83832 0,1.52957 -24.68883,14.75358 -30.9315,16.56776 -6.04815,1.75764 -17.0685,2.13112 -17.0685,0.57844 z m -5.78842,-5.25 c -0.81393,-0.98461 1.01779,-1.25869 8.62755,-1.29095 11.84657,-0.0502 15.44642,-1.20423 32.59578,-10.4494 7.1142,-3.83524 13.1592,-6.74888 13.43333,-6.47474 0.84889,0.84888 -0.94597,2.00997 -14.49967,9.37975 -9.14569,4.97295 -15.21621,7.58188 -20,8.5954 -8.56338,1.81429 -18.75527,1.93561 -20.15699,0.23994 z m -4.21158,-5.65189 c 0,-0.72981 3.62843,-1.09811 10.8185,-1.09811 13.73696,0 18.12181,-1.30435 34.39889,-10.23255 7.06217,-3.87369 13.13483,-6.74856 13.49479,-6.3886 1.06542,1.06542 -0.47433,2.02509 -16.46674,10.26316 l -15.25455,7.85799 -13.49545,0.34811 c -9.34549,0.24107 -13.49544,0.0104 -13.49544,-0.75 z m -1.33333,-4.76478 c -1.59895,-1.59894 0.10781,-1.83333 13.34972,-1.83333 h 14.01187 l 16.08963,-8.31127 c 8.84929,-4.57119 15.90699,-7.76338 15.68378,-7.09375 -0.6613,1.98392 -26.81486,15.74212 -32.06542,16.86817 -5.33516,1.14418 -26.01281,1.42696 -27.06958,0.37018 z m 1.08333,-5.04958 c -1.5125,-0.22913 -2.75,-0.80542 -2.75,-1.28066 0,-0.47524 4.8375,-0.61208 10.75,-0.30411 14.10937,0.73495 20.33217,-0.88628 35.45228,-9.23638 6.43626,-3.55443 12.17376,-6.4626 12.75,-6.4626 2.4721,0 0.61474,1.72251 -5.21036,4.83208 -15.06638,8.04278 -21.58428,11.00164 -26.54114,12.04862 -5.05301,1.0673 -18.59264,1.29048 -24.45078,0.40305 z m -0.5,-4.94367 c -7.34999,-1.05567 -2.38179,-1.90694 11,-1.88476 16.15088,0.0268 17.5105,-0.35471 33.60861,-9.42954 8.63434,-4.86735 11.17245,-5.8439 11.11292,-4.27578 -0.0345,0.9094 -18.4931,11.01075 -24.88826,13.61996 -4.60262,1.87786 -23.20155,3.06625 -30.83327,1.97012 z m 0,-6.04581 c -5.77781,-1.11286 -0.95819,-1.79427 12.69083,-1.79427 h 14.94082 l 11.68453,-6 c 13.72733,-7.04897 13.43382,-6.92309 13.43382,-5.76167 0,1.44956 -14.87062,9.55648 -21.9858,11.98585 -5.30102,1.80996 -8.5628,2.20363 -17.5142,2.11382 -6.05,-0.0607 -12.0125,-0.30538 -13.25,-0.54373 z m 3,-5.01767 c -7.29001,-0.90468 -2.45122,-1.77836 10.00197,-1.80593 14.4642,-0.032 16.64807,-0.62694 30.1392,-8.21026 5.60211,-3.14892 7.54883,-3.59037 6.19859,-1.40564 -1.32679,2.14679 -18.43933,10.01606 -24.02731,11.04905 -5.70359,1.05437 -15.50114,1.21806 -22.31245,0.37278 z m 1.48305,-4.99449 c -1.52183,-0.23002 -2.51246,-0.83001 -2.20141,-1.33331 0.31382,-0.50776 3.77101,-0.65042 7.76696,-0.3205 9.58699,0.79154 17.47873,-0.81266 27.42785,-5.57543 10.14204,-4.85512 12.10795,-3.50539 2.17791,1.49529 -10.73653,5.40683 -23.53318,7.49306 -35.17131,5.73395 z m 0.81695,-5.19778 c 0.5225,-0.50361 5.45,-1.0794 10.95,-1.27952 9.85896,-0.35873 11.17133,-0.70879 24.25,-6.46832 0.6875,-0.30276 1.25,-0.13519 1.25,0.37238 0,1.61417 -7.45837,5.18745 -14.09068,6.75079 -7.0353,1.65833 -23.92118,2.13009 -22.35932,0.62467 z m 5.45,-4.85363 c 0,-0.56524 3.2625,-1.35459 7.25,-1.75411 3.9875,-0.39952 9.275,-1.34032 11.75,-2.09067 5.26742,-1.59693 6,-1.66635 6,-0.56854 0,1.3435 -9.98851,4.01883 -17.75,4.75416 -4.7426,0.44933 -7.25,0.33145 -7.25,-0.34084 z"
       id="path513" />
  </g>
</svg>
