<?xml version="1.0" encoding="UTF-8" standalone="no"?>
<svg
   viewBox="0 0 699.99997 699.99998"
   version="1.1"
   id="svg289"
   sodipodi:docname="dantec-dynamics.svg"
   width="700"
   height="700"
   inkscape:version="1.2.2 (732a01da63, 2022-12-09)"
   xmlns:inkscape="http://www.inkscape.org/namespaces/inkscape"
   xmlns:sodipodi="http://sodipodi.sourceforge.net/DTD/sodipodi-0.dtd"
   xmlns="http://www.w3.org/2000/svg"
   xmlns:svg="http://www.w3.org/2000/svg"
   xmlns:rdf="http://www.w3.org/1999/02/22-rdf-syntax-ns#"
   xmlns:cc="http://creativecommons.org/ns#"
   xmlns:dc="http://purl.org/dc/elements/1.1/">
  <sodipodi:namedview
     id="namedview291"
     pagecolor="#ffffff"
     bordercolor="#000000"
     borderopacity="0.25"
     inkscape:showpageshadow="2"
     inkscape:pageopacity="0.0"
     inkscape:pagecheckerboard="0"
     inkscape:deskcolor="#d1d1d1"
     showgrid="false"
     inkscape:zoom="2.307904"
     inkscape:cx="248.27723"
     inkscape:cy="332.33618"
     inkscape:window-width="3840"
     inkscape:window-height="2126"
     inkscape:window-x="-11"
     inkscape:window-y="-11"
     inkscape:window-maximized="1"
     inkscape:current-layer="svg289" />
  <defs
     id="defs247">
    <style
       id="style245">.cls-1{fill:#00b4ab;}.cls-2{fill:#231f20;}</style>
  </defs>
  <title
     id="title249">Asset 1dantec-logo</title>
  <g
     id="Layer_2"
     data-name="Layer 2"
     transform="matrix(1.0463883,0,0,1.0463883,9.9657531,247.32857)">
    <g
       id="Layer_1-2"
       data-name="Layer 1">
      <path
         class="cls-1"
         d="m 70.06,86.09 34.58,-22.78 33.78,-21.67 a 72.7,72.7 0 0 0 -14,-18.47 Q 100.17,0 56.27,0 H 0 v 40.17 l 34,22.36 z"
         id="path251" />
      <path
         class="cls-1"
         d="m 71.56,89.71 33.08,9.06 42.14,11.92 a 128.91,128.91 0 0 0 1.93,-22.79 121.65,121.65 0 0 0 -1.42,-19 l -42.65,11.7 z"
         id="path253" />
      <polygon
         class="cls-1"
         points="33.98,99.81 68.99,89.71 33.98,80.13 0,70.81 0,109.61 "
         id="polygon255" />
      <path
         class="cls-1"
         d="M 70.06,93.26 34,116.82 0,139.19 v 40.05 h 50.76 q 47.56,0 72.76,-23.54 a 72.43,72.43 0 0 0 14,-18 l -32.87,-21.61 z"
         id="path257" />
      <path
         class="cls-2"
         d="M 253.21,44.16 Q 253.21,65.6 241,77 228.79,88.4 205.74,88.42 h -24.6 V 1.56 h 27.27 q 21.27,0 33,11.22 11.73,11.22 11.8,31.38 z m -19.13,0.47 q 0,-28 -24.71,-28 h -9.81 v 56.58 h 7.9 q 26.63,0 26.62,-28.58 z"
         id="path259" />
      <path
         class="cls-2"
         d="m 323.2,88.42 -6.29,-20.68 h -31.67 l -6.3,20.68 H 259.1 L 289.75,1.2 h 22.52 l 30.78,87.22 z M 312.51,52.3 q -8.73,-28.11 -9.83,-31.79 c -0.74,-2.46 -1.26,-4.4 -1.58,-5.82 q -2,7.61 -11.23,37.61 z"
         id="path261" />
      <path
         class="cls-2"
         d="M 431,88.42 H 407.63 L 369.84,22.71 h -0.53 q 1.13,17.4 1.13,24.83 V 88.42 H 354 V 1.56 h 23.23 l 37.73,65.05 h 0.41 Q 414.48,49.67 414.48,42.67 V 1.56 H 431 Z"
         id="path263" />
      <path
         class="cls-2"
         d="M 486.41,88.42 H 468 V 16.88 H 444.41 V 1.56 H 510 v 15.32 h -23.59 z"
         id="path265" />
      <path
         class="cls-2"
         d="m 573.4,88.42 h -50 V 1.56 h 50 v 15.09 h -31.61 v 19.07 h 29.41 v 15.09 h -29.41 v 22.4 h 31.61 z"
         id="path267" />
      <path
         class="cls-2"
         d="m 628.41,15.64 q -10.39,0 -16.1,7.81 -5.71,7.81 -5.7,21.77 0,29.06 21.8,29.06 9.15,0 22.16,-4.58 v 15.45 a 61.55,61.55 0 0 1 -23.88,4.46 q -19,0 -29,-11.5 -10,-11.5 -10.05,-33 0,-13.56 4.94,-23.74 A 35.65,35.65 0 0 1 606.76,5.74 Q 616,0.31 628.41,0.31 a 58.42,58.42 0 0 1 25.43,6.12 l -5.94,15 a 98.31,98.31 0 0 0 -9.8,-4 29.24,29.24 0 0 0 -9.69,-1.79 z"
         id="path269" />
      <path
         class="cls-2"
         d="m 234.33,143.29 q 0,16.78 -9.16,25.67 -9.16,8.89 -26.28,8.88 H 180 V 110 h 20.87 q 15.83,0 24.64,8.69 8.81,8.69 8.82,24.6 z m -9,0.27 q 0,-12.93 -6.38,-19.59 -6.38,-6.66 -19.27,-6.66 h -11.14 v 53.2 h 9.24 q 27.54,0 27.55,-26.95 z"
         id="path271" />
      <path
         class="cls-2"
         d="M 266.57,143.38 284.24,110 h 9.19 l -22.6,41.51 v 26.3 h -8.58 v -25.9 L 239.66,110 H 249 Z"
         id="path273" />
      <path
         class="cls-2"
         d="m 356.42,177.84 h -10 l -36.33,-56.31 h -0.37 l 0.24,3.76 q 0.56,8.44 0.55,14.66 v 37.89 h -7.88 V 110 h 9.88 l 2.08,3.29 22.27,34.42 11.83,18.41 h 0.37 c -0.06,-0.74 -0.19,-3.39 -0.37,-8 -0.18,-4.61 -0.28,-7.86 -0.28,-9.9 V 110 h 8 z"
         id="path275" />
      <path
         class="cls-2"
         d="m 417.37,177.84 -8.16,-21 H 382.3 l -8.07,21 h -8.63 l 26.49,-68.09 h 7.7 l 26.44,68.09 z m -10.71,-28.57 -7.61,-20.55 -3.25,-10.16 q -1.4,5.56 -2.92,10.16 l -7.7,20.55 z"
         id="path277" />
      <path
         class="cls-2"
         d="m 465.47,177.84 -22.35,-59.46 h -0.38 q 0.7,7.41 0.7,18.32 v 41.14 h -7.89 V 110 h 12.62 l 20.92,55.57 h 0.37 L 490.75,110 h 12.53 v 67.81 h -8.44 v -41.7 q 0,-7 0.65,-17.67 h -0.38 l -22.63,59.37 z"
         id="path279" />
      <path
         class="cls-2"
         d="m 540.81,177.84 h -24.5 v -4.91 l 8,-1.81 v -54.27 l -8,-1.91 V 110 h 24.5 v 4.91 l -8,1.91 v 54.27 l 8,1.81 z"
         id="path281" />
      <path
         class="cls-2"
         d="m 583,116.57 q -11,0 -17.21,7.33 -6.21,7.33 -6.26,20 0,13.13 6.08,20.24 6.08,7.11 17.3,7.12 a 57.53,57.53 0 0 0 16.28,-2.69 V 176 a 40.75,40.75 0 0 1 -8.3,2.16 64,64 0 0 1 -9.19,0.58 q -15,0 -23.08,-9.11 -8.08,-9.11 -8.09,-25.82 a 41.23,41.23 0 0 1 3.87,-18.37 27.94,27.94 0 0 1 11.28,-12.15 34.17,34.17 0 0 1 17.41,-4.27 41.37,41.37 0 0 1 18.74,4 l -3.43,7.24 A 37,37 0 0 0 583,116.57 Z"
         id="path283" />
      <path
         class="cls-2"
         d="m 652.41,159.71 q 0,8.85 -6.4,14 -6.4,5.15 -17.81,5.1 -12.06,0 -18.65,-3.2 v -8.16 a 49.67,49.67 0 0 0 9.44,2.92 47.28,47.28 0 0 0 9.58,1.07 q 7.6,0 11.46,-2.93 a 9.52,9.52 0 0 0 3.85,-8 10.27,10.27 0 0 0 -1.39,-5.57 13.43,13.43 0 0 0 -4.67,-4.08 64.3,64.3 0 0 0 -9.9,-4.31 q -9.42,-3.44 -13.45,-8.1 -4.03,-4.66 -4,-12 a 15.21,15.21 0 0 1 6,-12.61 q 6,-4.69 15.7,-4.69 a 45.34,45.34 0 0 1 18.7,3.81 l -2.65,7.33 a 42.4,42.4 0 0 0 -16.23,-3.62 q -6,0 -9.44,2.59 a 8.65,8.65 0 0 0 -3.41,7.29 10.64,10.64 0 0 0 1.32,5.54 12.32,12.32 0 0 0 4.27,4 54.57,54.57 0 0 0 9.25,4.13 51.43,51.43 0 0 1 11.28,5.4 17.09,17.09 0 0 1 5.47,6 17.56,17.56 0 0 1 1.68,8.09 z"
         id="path285" />
    </g>
  </g>
  <metadata
     id="metadata293">
    <rdf:RDF>
      <cc:Work
         rdf:about="">
        <dc:title>Asset 1dantec-logo</dc:title>
      </cc:Work>
    </rdf:RDF>
  </metadata>
</svg>
