<?xml version="1.0" encoding="UTF-8" standalone="no"?>
<svg
   version="1.1"
   id="Layer_1"
   x="0px"
   y="0px"
   width="160"
   height="160"
   viewBox="0 0 160 160"
   enable-background="new 0 0 150.7 57.9"
   xml:space="preserve"
   sodipodi:docname="force.svg"
   inkscape:version="1.2.2 (732a01da63, 2022-12-09)"
   xmlns:inkscape="http://www.inkscape.org/namespaces/inkscape"
   xmlns:sodipodi="http://sodipodi.sourceforge.net/DTD/sodipodi-0.dtd"
   xmlns="http://www.w3.org/2000/svg"
   xmlns:svg="http://www.w3.org/2000/svg"><defs
   id="defs461" /><sodipodi:namedview
   id="namedview459"
   pagecolor="#ffffff"
   bordercolor="#000000"
   borderopacity="0.25"
   inkscape:showpageshadow="2"
   inkscape:pageopacity="0.0"
   inkscape:pagecheckerboard="0"
   inkscape:deskcolor="#d1d1d1"
   showgrid="false"
   inkscape:zoom="8"
   inkscape:cx="94.5"
   inkscape:cy="68"
   inkscape:window-width="3840"
   inkscape:window-height="2126"
   inkscape:window-x="-11"
   inkscape:window-y="-11"
   inkscape:window-maximized="1"
   inkscape:current-layer="Layer_1" />
  <polygon
   fill="#ffffff"
   points="150.7,0 150.1,0 0,0 0,57.9 150.7,57.9 "
   id="polygon392"
   transform="matrix(1.0522561,0,0,1.0522561,0.75000002,50.34937)" />
  <rect
   x="59.044991"
   y="86.96788"
   fill="#003d68"
   width="94.597832"
   height="18.624935"
   id="rect394"
   style="stroke-width:1.05226" />
  <rect
   x="6.9583106"
   y="56.662907"
   fill="#003d68"
   width="48.929909"
   height="48.929909"
   id="rect396"
   style="stroke-width:1.05226" />
  <g
   id="g456"
   transform="matrix(1.0522561,0,0,1.0522561,0.75000002,50.34937)">
    <path
   fill="#ffffff"
   d="m 30.1,9.4 h 0.1 c 3.3,0 6.4,0.9 9.1,2.5 h -6.7 c -0.5,-0.6 -1,-1.1 -1.5,-1.7 m -1.6,37.6 v 0 c 3.3,0 6.5,-1 9.2,-2.6 H 32 c -0.5,0.6 -1,1.1 -1.5,1.6 m 2.2,-2.4 v 0 c 0,0.1 -0.1,0.1 -0.2,0.2 h 7.2 C 40.8,43.8 41.8,43 42.8,42 h -8.4 c -0.4,0.6 -0.7,1.1 -1.1,1.7 M 35,41 v 0 c -0.1,0.1 -0.1,0.3 -0.2,0.4 h 8.6 c 0.7,-0.8 1.3,-1.7 1.9,-2.6 H 36 c -0.2,0.5 -0.5,1.1 -0.8,1.6 m 1.4,-2.9 v 0 c -0.1,0.2 -0.2,0.4 -0.2,0.6 h 9.4 c 0.5,-0.8 0.9,-1.7 1.2,-2.6 H 37.3 C 37.2,36 37,36.5 36.8,37 m 0.9,-3 v 0 c -0.1,0.3 -0.1,0.5 -0.2,0.8 h 9.8 C 47.6,34 47.8,33.1 48,32.2 H 38 c -0.1,0.4 -0.1,0.9 -0.2,1.3 m 0.4,-3 v 0 c 0,0.3 -0.1,0.7 -0.1,1 h 10 c 0.1,-0.8 0.2,-1.7 0.3,-2.6 h -10 c 0,0.4 0,0.8 -0.1,1.2 m 0,-3 v 0 c 0,0.4 0,0.8 0,1.2 h 10.1 c 0,-0.9 0,-1.7 -0.2,-2.6 h -10 c 0,0.3 0,0.6 0.1,1 M 38,23.6 v 0 c 0.1,0.5 0.1,0.9 0.2,1.4 h 10 c -0.1,-0.9 -0.3,-1.7 -0.6,-2.6 h -9.8 c 0.1,0.2 0.1,0.5 0.2,0.7 m -0.9,-2.9 v 0 c 0.2,0.5 0.3,1 0.4,1.5 h 9.7 C 46.9,20.8 46.5,20 46.1,19.1 h -9.4 c 0.1,0.2 0.1,0.4 0.2,0.5 m -1.1,-2.8 v 0 c 0.3,0.5 0.5,1.1 0.7,1.6 h 9.3 C 45.3,17.5 44.7,16.6 44,15.8 h -8.7 c 0.1,0.1 0.1,0.2 0.2,0.3 m -1.6,-2.6 v 0 c 0.4,0.5 0.7,1.1 1,1.7 h 8.5 c -0.9,-1 -1.9,-1.8 -2.9,-2.6 h -7.2 c 0,0 0.1,0.1 0.1,0.1"
   id="path398" />
    <path
   fill="#ffffff"
   d="m 28.6,10.3 -8.3,0.6 c 2.2,-1 5.2,-1 7.8,-1"
   id="path400" />
    <path
   fill="#ffffff"
   d="m 28.4,46.9 -8.2,-0.5 c 2.2,0.9 4.7,1.4 7.2,1.4"
   id="path402" />
    <path
   fill="#ffffff"
   d="m 31.2,43.7 -16.5,-1 c 0.7,0.7 1.4,1.3 2.2,1.8 l 13.8,-0.1"
   id="path404" />
    <path
   fill="#ffffff"
   d="M 33.3,40.3 11.9,39.2 c 0.4,0.7 0.9,1.4 1.4,2 L 33,40.9"
   id="path406" />
    <path
   fill="#ffffff"
   d="M 34.8,37 10.3,35.9 c 0.3,0.7 0.6,1.4 0.9,2.1 l 23.4,-0.5"
   id="path408" />
    <path
   fill="#ffffff"
   d="m 35.7,33.5 -26.4,-1 c 0.1,0.7 0.3,1.5 0.5,2.2 L 35.6,34"
   id="path410" />
    <path
   fill="#ffffff"
   d="M 36.2,30.1 9.1,29.2 c 0,0.8 0,1.5 0.1,2.2 l 27,-0.9"
   id="path412" />
    <path
   fill="#ffffff"
   d="M 36.3,26.6 9.3,25.9 C 9.2,26.6 9.1,27.4 9.1,28.1 L 36.3,27"
   id="path414" />
    <path
   fill="#ffffff"
   d="M 35.9,23.2 10.2,22.7 C 10,23.4 9.8,24.2 9.6,24.9 L 36,23.7"
   id="path416" />
    <path
   fill="#ffffff"
   d="M 34.9,19.7 11.5,19.4 c -0.4,0.7 -0.7,1.4 -1,2.1 l 24.6,-1.3"
   id="path418" />
    <path
   fill="#ffffff"
   d="M 33.5,16.2 13.9,16 c -0.6,0.6 -1.1,1.3 -1.5,2 l 21.4,-1.3"
   id="path420" />
    <path
   fill="#ffffff"
   d="M 31.3,12.8 H 17.5 C 16.7,13.4 16,14 15.3,14.6 l 16.6,-1.1"
   id="path422" />
    <polygon
   fill="#ffffff"
   points="65.3,48 63.7,48 63.7,39.9 61.4,39.9 61.4,39.1 67.6,39.1 67.6,39.9 65.3,39.9 "
   id="polygon424" />
    <polygon
   fill="#ffffff"
   points="70.2,47.2 74.1,47.2 74.1,48 68.6,48 68.6,39.1 74.1,39.1 74.1,39.9 70.2,39.9 70.2,43 73.7,43 73.7,43.8 70.2,43.8 "
   id="polygon426" />
    <path
   fill="#ffffff"
   d="m 79.2,48.2 c -2.8,0 -4.4,-2.1 -4.4,-4.6 0,-2.5 1.6,-4.6 4.4,-4.6 1,0 1.8,0.2 2.3,0.5 l -0.4,0.7 c -0.4,-0.2 -0.9,-0.4 -1.6,-0.4 -2.3,0 -3.1,1.9 -3.1,3.8 0,1.9 0.9,3.7 3,3.7 0.7,0 1.2,-0.1 1.6,-0.3 l 0.4,0.8 C 81,48 80.1,48.2 79.2,48.2"
   id="path428" />
    <polygon
   fill="#ffffff"
   points="88.5,39.1 90.1,39.1 90.1,48 88.5,48 88.5,43.8 84.1,43.8 84.1,48 82.5,48 82.5,39.1 84.1,39.1 84.1,43 88.5,43 "
   id="polygon430" />
    <path
   fill="#ffffff"
   d="m 98.6,48 -5,-6.5 c -0.4,-0.6 -0.8,-1.1 -0.8,-1.1 v 0 c 0,0 0.1,0.5 0.1,1.1 V 48 h -1.3 v -9 h 1.7 l 4.8,6.3 c 0.4,0.5 0.7,1 0.7,1 v 0 c 0,0 -0.1,-0.4 -0.1,-1 v -6.2 h 1.3 v 9 h -1.4 z"
   id="path432" />
    <path
   fill="#ffffff"
   d="m 105.3,48.2 c -3.1,0 -4.3,-2 -4.3,-4.6 0,-2.5 1.2,-4.6 4.3,-4.6 3.1,0 4.3,2.1 4.3,4.6 0,2.5 -1.2,4.6 -4.3,4.6 m 0,-8.4 c -2.2,0 -2.7,2 -2.7,3.8 0,1.8 0.4,3.8 2.7,3.8 2.2,0 2.7,-1.9 2.7,-3.8 0,-1.9 -0.5,-3.8 -2.7,-3.8"
   id="path434" />
    <polygon
   fill="#ffffff"
   points="112.2,47.2 115.8,47.2 115.8,48 110.7,48 110.7,39.1 112.2,39.1 "
   id="polygon436" />
    <path
   fill="#ffffff"
   d="m 119.9,48.2 c -3.1,0 -4.3,-2 -4.3,-4.6 0,-2.5 1.2,-4.6 4.3,-4.6 3.1,0 4.3,2.1 4.3,4.6 -0.1,2.5 -1.3,4.6 -4.3,4.6 m 0,-8.4 c -2.2,0 -2.7,2 -2.7,3.8 0,1.8 0.4,3.8 2.7,3.8 2.2,0 2.7,-1.9 2.7,-3.8 -0.1,-1.9 -0.6,-3.8 -2.7,-3.8"
   id="path438" />
    <path
   fill="#ffffff"
   d="m 130.1,48.2 c -2.7,0 -5,-1.5 -5,-4.7 0,-3 2.3,-4.5 5,-4.5 1.3,0 2.2,0.2 2.8,0.5 l -0.5,0.7 c -0.4,-0.2 -1.1,-0.4 -2.1,-0.4 -2.2,0 -3.5,1.2 -3.5,3.8 0,2.4 1.5,3.7 3.3,3.7 0.8,0 1.2,-0.1 1.5,-0.2 v -3.4 h -2 V 43 h 3.5 v 4.7 c -0.8,0.3 -1.6,0.5 -3,0.5"
   id="path440" />
    <polygon
   fill="#ffffff"
   points="141.4,39.1 138.2,44.1 138.2,48 136.6,48 136.6,44.1 133.4,39.1 135.1,39.1 137.5,43.1 139.9,39.1 "
   id="polygon442" />
    <polygon
   fill="#003d68"
   points="69.1,8.4 59.4,8.4 59.4,16.9 68.1,16.9 68.1,19.1 59.4,19.1 59.4,30.6 55.5,30.6 55.5,6.2 69.1,6.2 "
   id="polygon444" />
    <path
   fill="#003d68"
   d="m 87.4,18.3 c 0,4.9 -1.1,10.3 -6.6,10.3 -5.6,0 -6.7,-5.3 -6.7,-10.3 0,-5 1.2,-10.3 6.6,-10.3 5.4,0 6.7,5.4 6.7,10.3 m 3.9,0.1 c 0,-6.9 -3,-12.6 -10.6,-12.6 -7.7,0 -10.6,5.7 -10.6,12.6 0,7 3,12.6 10.6,12.6 7.6,0 10.6,-5.6 10.6,-12.6"
   id="path446" />
    <path
   fill="#003d68"
   d="m 107.1,13.2 c 0,3.5 -2.3,5.5 -7.1,5.5 -1,0 -2.1,-0.1 -2.5,-0.2 V 8.3 c 0.8,-0.4 1.9,-0.5 3.3,-0.5 4.3,-0.1 6.3,1.7 6.3,5.4 m 4.6,17.4 -9.6,-10.8 v -0.1 c 5.4,-0.1 8.9,-2.6 8.9,-6.7 0,-4.6 -3.4,-7.3 -10.1,-7.3 -3.2,0 -5.8,0.6 -7.3,1.3 v 23.5 h 3.9 V 19.2 h 0.1 l 9.7,11.4 z"
   id="path448" />
    <path
   fill="#003d68"
   d="m 123.9,31 c -7.1,0 -11,-5.7 -11,-12.6 0,-6.8 3.9,-12.6 11,-12.6 2.6,0 4.4,0.6 5.7,1.4 l -0.9,1.9 c -0.9,-0.5 -2.3,-1 -4.1,-1 -5.6,0 -7.6,5.1 -7.6,10.3 0,5.3 2.2,10.1 7.6,10.1 1.8,0 3,-0.4 4.1,-1 l 1,2.1 c -1.3,0.9 -3.4,1.4 -5.8,1.4"
   id="path450" />
    <polygon
   fill="#003d68"
   points="135.7,28.4 145.4,28.4 145.4,30.6 131.8,30.6 131.8,6.2 145.4,6.2 145.4,8.4 135.7,8.4 135.7,16.9 144.4,16.9 144.4,19.1 135.7,19.1 "
   id="polygon452" />
    <path
   fill="#003d68"
   d="M 150.1,0 H 0 V 57.9 H 150.7 V 0 Z m -0.6,56.7 H 1.2 V 1.2 h 148.3 z"
   id="path454" />
  </g>
</svg>
