<?xml version="1.0" encoding="UTF-8" standalone="no"?>
<!-- Generator: Adobe Illustrator 19.2.1, SVG Export Plug-In . SVG Version: 6.00 Build 0)  -->

<svg
   version="1.1"
   id="layer"
   x="0px"
   y="0px"
   viewBox="0 0 652 652"
   style="enable-background:new 0 0 652 652;"
   xml:space="preserve"
   sodipodi:docname="gea.svg"
   inkscape:version="1.1 (c4e8f9e, 2021-05-24)"
   xmlns:inkscape="http://www.inkscape.org/namespaces/inkscape"
   xmlns:sodipodi="http://sodipodi.sourceforge.net/DTD/sodipodi-0.dtd"
   xmlns="http://www.w3.org/2000/svg"
   xmlns:svg="http://www.w3.org/2000/svg"><defs
   id="defs909" /><sodipodi:namedview
   id="namedview907"
   pagecolor="#ffffff"
   bordercolor="#666666"
   borderopacity="1.0"
   inkscape:pageshadow="2"
   inkscape:pageopacity="0.0"
   inkscape:pagecheckerboard="0"
   showgrid="false"
   inkscape:zoom="0.23312883"
   inkscape:cx="-169.43421"
   inkscape:cy="390.3421"
   inkscape:window-width="1409"
   inkscape:window-height="660"
   inkscape:window-x="0"
   inkscape:window-y="25"
   inkscape:window-maximized="0"
   inkscape:current-layer="layer" />
<style
   type="text/css"
   id="style824">
	.st0{fill:#929292;}
	.st1{fill:#0095DB;}
</style>
<g
   id="g854">
	<path
   class="st0"
   d="m 190.20141,228.36976 c 0,0 -12.33055,-3.2539 -30.48385,-4.62396 -15.92696,-1.19881 -36.47788,-1.37006 -57.02878,3.25389 -44.698237,9.76169 -89.567727,45.38326 -89.567727,95.21923 0,34.25151 19.523366,61.82399 48.4659,78.09346 12.159289,6.8503 25.859896,11.47426 40.588057,14.21438 52.74733,9.41917 113.20126,-5.82276 113.20126,-5.82276 v -61.99525 c 0,0 -11.47425,-1.37006 -18.66708,-2.05508 -7.02156,-0.68504 -22.09222,-3.42516 -22.09222,-3.42516 v 45.89703 c 0,0 -28.08625,10.78923 -65.4204,0 -5.48025,-1.54132 -10.275464,-3.76766 -14.899414,-5.99401 -28.257506,-13.7006 -40.245538,-38.19045 -40.245538,-61.65273 0,-39.56051 32.710201,-70.21562 82.546162,-70.21562 18.32456,0 32.02517,4.45269 40.93056,8.73414 8.22037,3.76767 12.67307,7.36407 12.67307,7.36407 v -36.99163"
   id="path826"
   style="stroke-width:1.71257" />
	<path
   class="st0"
   d="m 445.889,346.5375 c 0,0 11.47426,-1.37007 16.61198,-2.0551 9.24791,-1.19879 23.4623,-3.5964 23.4623,-3.5964 l -18.66708,45.04074 c 0,0 -4.62396,10.61797 -5.6515,15.7557 -0.51378,2.22635 -0.68503,4.62396 -0.34252,6.33653 0.34252,2.74012 1.54132,4.28144 1.54132,4.28144 h -52.57608 c 0,0 5.30898,-5.99401 8.73414,-11.303 4.28144,-6.67904 8.56287,-15.92695 12.15929,-22.94851 6.50779,-13.70062 14.72815,-31.5114 14.72815,-31.5114"
   id="path828"
   style="stroke-width:1.71257" />
	<path
   class="st0"
   d="m 266.75355,350.47642 c 0,0 11.98804,0.68503 19.69463,0.85629 8.04911,0.17126 21.57846,0.68503 21.57846,0.68503 v 34.59403 c 0,0 66.79046,0.17126 68.67429,0.17126 2.56886,0 6.50779,-0.17126 9.93294,-0.51377 3.93893,-0.34252 7.36408,-0.68504 9.07665,-1.1988 2.91139,-0.8563 3.2539,-1.37006 3.2539,-1.37006 l -12.33055,29.11379 H 264.35595 c 0,0 0.85629,-4.28145 1.54131,-8.73414 0.68504,-3.93893 1.02755,-12.67306 1.02755,-12.67306 v -40.93057 z"
   id="path830"
   style="stroke-width:1.71257" />
	<path
   class="st0"
   d="m 264.35595,227.51347 h 118.85277 v 29.62756 c 0,0 -1.71257,-0.68503 -3.93893,-1.37006 -1.71257,-0.51377 -8.73413,-1.19881 -14.38564,-1.37006 -6.50779,-0.17126 -14.38563,-0.17126 -14.38563,-0.17126 h -42.47188 v 50.34974 l -20.72218,-0.51378 -20.55091,-0.51377 v -54.63117 c 0,0 -0.17125,-7.53534 -0.51377,-11.30301 -0.51377,-4.4527 -1.88383,-10.10419 -1.88383,-10.10419"
   id="path832"
   style="stroke-width:1.71257" />
	<path
   class="st0"
   d="m 365.74044,274.78056 c 0,0 9.59043,0 20.72217,0.17126 10.27546,0.17126 21.92098,0.51377 28.94254,0.68503 14.89941,0.34251 26.37367,0.85629 34.42277,1.37006 10.27546,0.51377 15.41318,1.19881 15.41318,1.19881 l -2.74012,5.99401 c 0,0 -34.76529,-3.59641 -46.75332,-4.62395 -11.13174,-1.02755 -44.86949,-4.11019 -49.83596,-4.4527 -0.34251,0 -0.17126,-0.34252 -0.17126,-0.34252"
   id="path834"
   style="stroke-width:1.71257" />
	<path
   class="st0"
   d="m 467.63871,298.0716 21.23594,-48.29464 c 0,0 4.11019,-8.9054 5.30899,-12.1593 1.71257,-4.96646 1.71257,-10.10419 1.71257,-10.10419 h 61.31022 l 64.56412,150.02165 c 0,0 7.02156,17.12576 9.24792,20.89343 1.54131,2.74012 4.28143,6.50779 6.33652,9.07665 2.74012,3.42515 4.62396,4.96647 4.62396,4.96647 H 586.834 c 0,0 1.37006,-3.59641 1.02754,-7.02156 -0.51376,-3.76767 -2.74012,-7.87785 -2.74012,-7.87785 l -28.2575,-66.10543 -32.88146,-75.69586 -0.85628,-2.39761 -0.85629,2.39761 -15.07067,34.42278 c 0,0 -11.64552,3.08263 -17.63953,4.28144 -7.02157,1.54131 -21.92098,3.59641 -21.92098,3.59641"
   id="path836"
   style="stroke-width:1.71257" />
	<path
   class="st0"
   d="m 253.56672,276.6644 c 0,0 -5.82276,-0.17126 -14.21439,0.17126 -4.96646,0.17125 -10.96048,0.34251 -17.12575,0.68502 -30.99763,1.71258 -59.25513,5.99402 -75.86711,10.96048 -14.72816,4.45271 -27.22997,10.44672 -27.22997,17.8108 0,7.02156 11.30301,13.01558 28.25751,17.98204 14.89941,4.28144 34.42277,7.87785 54.80243,10.44672 59.08387,7.36408 110.6324,7.19281 128.27194,7.19281 11.47426,0 92.4791,-0.17125 150.19291,-10.61796 37.33416,-6.67904 60.45393,-14.89942 60.45393,-25.17487 0,-4.79521 -4.45269,-8.39162 -9.41917,-11.13175 -5.82275,-3.25389 -12.15929,-4.96646 -12.15929,-4.96646 0,0 3.25389,3.76766 -3.59641,7.53533 -2.74012,1.54132 -6.8503,2.91138 -12.33054,4.4527 -4.79521,1.19881 -10.61797,2.74012 -17.29702,3.93893 -10.61797,1.88383 -23.11977,3.42514 -37.67667,4.62395 -9.59042,0.85629 -32.7102,2.56886 -60.96771,3.59641 -29.4563,1.02754 -58.91261,1.02754 -58.91261,1.02754 0,0 -26.88744,0 -59.76889,-1.19879 -15.58445,-0.51378 -32.53895,-1.37007 -48.46591,-2.56887 -20.55091,-1.54132 -40.24553,-3.76767 -53.43237,-6.67905 -10.78923,-2.22635 -17.46827,-5.13773 -17.46827,-7.53533 -0.17126,-11.303 103.95336,-20.55091 103.95336,-20.55091"
   id="path838"
   style="stroke-width:1.71257" />
	
	
	
	
	
	
	
</g>










</svg>
