<?xml version="1.0" encoding="UTF-8" standalone="no"?>
<!-- Created with Inkscape (http://www.inkscape.org/) -->

<svg
   version="1.1"
   id="svg9"
   width="300"
   height="300"
   viewBox="0 0 300 300"
   xmlns="http://www.w3.org/2000/svg"
   xmlns:svg="http://www.w3.org/2000/svg">
  <defs
     id="defs13" />
  <g
     id="g15">
    <g
       id="g181"
       transform="translate(7.1610811,99.00973)">
      <path
         style="fill:#fefefe;stroke-width:0.32"
         d="M 7.04,75.206864 7.2,67.532922 8.0865421,66.646458 c 0.8373933,-0.837315 1.0718902,-0.892496 4.2298539,-0.995296 l 3.343313,-0.108838 0.09014,8.669049 0.09015,8.669046 -4.48,1.96e-4 -4.48,1.92e-4 z M 22.4,74.239997 v -8.639999 h 4.32 4.32 v 8.639999 8.64 H 26.72 22.4 Z M 37.6,71.920071 V 60.959998 H 22.4 c -16.8397085,0 -17.0878221,0.02669 -19.616814,2.111312 C 1.3570435,64.246858 0.66100938,65.497255 0.32410918,67.488945 0.18725097,68.298023 0.05833895,53.443998 0.03763803,34.479999 L 0,0 138.16,0.02871581 C 258.41469,0.0537101 275.99467,0.11621029 273.80969,0.5109764 268.9031,1.3974628 263.62875,3.5415634 259.1117,6.485922 c -5.20027,3.3897061 -8.91824,7.143034 -9.81001,9.903306 -0.31444,0.973259 -0.2921,1.548781 0.123,3.169082 0.6325,2.468901 2.07327,5.200887 2.81748,5.342487 0.36635,0.06971 1.71336,-1.043822 3.86723,-3.196917 3.93887,-3.937447 8.16151,-7.040167 12.5306,-9.207271 6.15599,-3.0534193 9.57706,-2.6833524 8.99243,0.972736 -0.98231,6.143008 -11.6594,17.306278 -26.16321,27.354548 -2.43093,1.684153 -4.51637,3.218224 -4.6343,3.409046 -0.75897,1.228048 6.1913,-1.55271 11.0249,-4.410988 10.52247,-6.222307 20.00103,-14.772678 25.62548,-23.116118 1.76325,-2.615632 3.80734,-6.8922138 4.16351,-8.7107587 0.16865,-0.8610752 0.29509,13.8281147 0.31613,36.7249237 L 288,82.879997 l -16.56,3.2e-4 -16.56,3.2e-4 0.0933,-6.271513 c 0.067,-4.507088 -0.014,-6.40088 -0.28832,-6.731347 -0.29382,-0.354029 -1.0884,-0.438896 -3.45332,-0.368829 l -3.07168,0.09105 -0.16,4.32 -0.16,4.32 -3.36,-0.01229 c -4.14844,-0.01517 -5.86316,-0.682227 -7.01308,-2.728243 -0.6336,-1.127328 -0.716,-1.656784 -0.61892,-3.976745 0.12028,-2.874269 0.52412,-3.764807 2.31408,-5.102957 0.80146,-0.599165 1.46105,-0.67447 7.18023,-0.819773 4.2127,-0.107027 6.53142,-0.293673 7.00369,-0.563766 0.69756,-0.398938 1.36875,-2.118838 1.37221,-3.516234 l 0.002,-0.719993 h -6.66123 c -7.48952,0 -9.60833,0.282253 -12.29332,1.637632 -3.52,1.776889 -5.62863,4.801462 -5.92931,8.504835 -0.4349,5.356687 2.96725,9.898121 8.49533,11.340172 l 2.14853,0.560467 -7.2,0.01782 -7.2,0.01782 v -7.759369 c 0,-8.885488 -0.22166,-9.98055 -2.39715,-11.842688 -2.47103,-2.11511 -3.59548,-2.308572 -13.44285,-2.312854 l -8.8,-0.0038 -0.0842,10.96 -0.0842,10.959999 -2.7958,1.95e-4 -2.7958,1.99e-4 0.0925,-10.592301 c 0.0685,-7.837478 -0.007,-10.711647 -0.28832,-11.051199 -0.29288,-0.352903 -1.09037,-0.437882 -3.45254,-0.367898 l -3.07168,0.091 V 71.9201 82.880176 h -2.88 -2.88 V 71.920071 60.959998 h -3.2 -3.2 l -0.16,8.639999 -0.16,8.64 h -4.16 -4.16 l -0.16,-8.64 -0.16,-8.639999 h -3.2 -3.2 l -0.16,8.639999 -0.16,8.64 -2.92696,-0.04239 c -3.01208,-0.04362 -4.56815,-0.558179 -5.143,-1.700678 -0.13752,-0.273316 -0.32204,-3.880935 -0.41004,-8.016934 l -0.16,-7.52 h -3.36 -3.36 v 7.52 c 0,4.135999 0.11614,8.068591 0.25808,8.73909 0.51061,2.411956 3.3425,4.659325 6.70822,5.32361 0.81673,0.161197 -4.2615,0.281085 -12.8021,0.302237 l -14.1558,0.03506 -0.0842,-10.96 L 125.6,60.959998 h -3.2 -3.2 v 10.960073 10.960076 l -7.04,1.38e-4 -7.04,1.34e-4 0.09,-8.631244 0.09,-8.631248 4.38999,-0.08896 4.38999,-0.08897 v -2.24 -2.24 H 101.76 89.44 v 2.24 2.24 l 4.38999,0.08897 4.389991,0.08896 0.09001,8.631248 0.09001,8.631244 -2.72,6.4e-4 -2.72,6.4e-4 0.106259,-2.240723 0.106259,-2.24072 -4.266259,-0.01907 c -5.513513,-0.02464 -7.126432,-0.29583 -8.212192,-1.380707 L 79.84,76.146842 79.68,68.553422 79.52,60.959998 H 76.16 72.8 l 0.007,8 c 0.0067,7.601468 0.04185,8.065743 0.705968,9.319746 1.27639,2.410115 3.43159,3.768621 6.751626,4.255815 1.163187,0.170691 -2.323277,0.266976 -9.704628,0.268009 -7.83888,9.6e-4 -10.969331,-0.08984 -9.796688,-0.284582 2.121872,-0.352381 4.667757,-1.699763 5.651104,-2.99079 1.2513,-1.642813 1.455741,-3.330868 1.357434,-11.208198 l -0.09185,-7.36 h -3.2 -3.2 l -0.16,7.36 c -0.171366,7.882783 -0.28222,8.436566 -1.849484,9.239167 -2.352717,1.204832 -7.23266,0.863549 -8.706407,-0.608893 -0.803497,-0.80278 -0.80423,-0.809152 -0.964109,-8.396831 L 49.44,60.959998 h -3.2 -3.2 l -0.08916,7.84 c -0.100877,8.870751 0.06104,9.766601 2.086656,11.545119 1.438227,1.262778 2.813321,1.847971 5.147129,2.190442 1.312579,0.192614 -0.178774,0.277222 -5.384627,0.305491 l -7.2,0.0391 z m 103.68,-0.08007 v -2.24 h -5.44 -5.44 l -0.0973,1.88417 c -0.0535,1.036291 -0.0207,2.083789 0.0729,2.32777 0.13764,0.358684 1.19761,0.426796 5.53729,0.35583 l 5.36706,-0.08777 z m 84.79904,-20.220392 c 6.93038,-1.337821 14.27779,-5.273917 19.70659,-10.557053 3.34258,-3.252899 4.29618,-4.948121 3.97778,-7.07136 -0.32683,-2.17948 -1.38969,-4.800974 -2.40906,-5.941844 l -0.89303,-0.999482 -3.95066,3.844518 c -6.23642,6.068866 -13.69794,10.598485 -18.03165,10.946354 -1.85678,0.149043 -2.01055,0.107241 -2.66475,-0.724439 -0.86316,-1.097328 -0.86572,-1.594025 -0.0199,-3.854713 2.40498,-6.427885 12.70892,-16.808873 25.17156,-25.359791 4.71814,-3.2372276 5.40971,-3.7872347 5.12449,-4.0755502 -0.30127,-0.3045398 -3.50496,0.8781334 -7.2547,2.6781492 -3.43207,1.647519 -11.06269,6.639399 -15.07572,9.862395 -10.31768,8.286464 -18.53754,19.657949 -18.62413,25.764925 -0.0339,2.387177 0.86707,3.811068 3.11265,4.919481 2.90958,1.436166 6.45324,1.606425 11.83052,0.56841 z m -18.14892,22.597164 0.0901,-8.663655 4.62351,0.10344 c 4.56467,0.102128 4.63479,0.114724 5.50987,0.989904 l 0.88637,0.886464 0.16,7.673942 0.16,7.673943 -5.76,-1.92e-4 -5.76,-1.96e-4 z M 287.5823,4.5515061 c -0.38876,-1.9438285 -2.17663,-3.358884 -5.1823,-4.10167111 -1.56965,-0.38790656 -1.53172,-0.39592222 2,-0.42262052 L 288,0 v 2.7199999 c 0,2.8311538 -0.11602,3.3398856 -0.4177,1.8315062 z"
         id="path187" />
      <path
         style="fill:#b9d204;stroke-width:0.32"
         d="m 246.83492,44.232939 c 0.11793,-0.190822 2.20337,-1.724893 4.6343,-3.409046 12.25505,-8.49032 21.70597,-17.637104 25.0325,-24.226925 3.15671,-6.253392 -0.0983,-7.9510742 -7.86172,-4.100359 -4.36909,2.167104 -8.59173,5.269824 -12.5306,9.207271 -2.15387,2.153095 -3.50088,3.266624 -3.86723,3.196917 -0.74421,-0.1416 -2.18498,-2.873586 -2.81748,-5.342487 -0.4151,-1.620301 -0.43744,-2.195823 -0.123,-3.169082 1.28635,-3.981595 8.63603,-10.0526263 16.0493,-13.2571569 5.76382,-2.49152421 12.44277,-3.63764951 16.40901,-2.81582831 6.25793,1.29666771 7.59926,4.92929781 4.33849,11.74959021 -4.52046,9.455111 -15.43941,20.187468 -28.23867,27.756118 -4.8336,2.858278 -11.78387,5.639036 -11.0249,4.410988 z"
         id="path185" />
      <path
         style="fill:#02344d;stroke-width:0.32"
         d="M 0.12050966,82.412477 C 0.01708541,82.142957 -0.00662653,78.573892 0.06781645,74.48122 0.18126661,68.244039 0.29638213,66.818756 0.77925344,65.672689 1.5035062,63.953716 3.2850995,62.411543 5.4919741,61.593291 7.1053427,60.995095 8.0423718,60.959998 22.4,60.959998 h 15.2 v 10.879999 10.88 l -3.28,0.09119 -3.28,0.0912 v -8.651196 -8.651193 h -4.314773 -4.314774 l -0.08523,8.559999 -0.08523,8.56 h -3.2 -3.2 l -0.08528,-8.588976 -0.08528,-8.588975 -3.348177,0.108976 c -3.1633576,0.10296 -3.3971131,0.157913 -4.2347179,0.995552 L 7.2,67.533153 l -0.16,7.59342 -0.16,7.593424 -3.2857232,0.09126 c -2.71285744,0.07535 -3.31850852,0.0058 -3.47376714,-0.398778 z M 50.112563,82.547386 C 46.502147,81.980749 43.909091,80.07336 43.207616,77.468285 43.000621,76.699562 42.901779,73.235098 42.95415,68.584084 L 43.04,60.959998 h 3.2 3.2 l 0.16,7.593443 c 0.159878,7.587679 0.160611,7.594051 0.964109,8.396831 1.473747,1.472442 6.353689,1.813725 8.706406,0.608893 1.567264,-0.802601 1.678119,-1.356384 1.849485,-9.239167 l 0.16,-7.36 h 3.2 3.2 v 8.159999 c 0,7.625898 -0.04335,8.243783 -0.662288,9.44 -0.728106,1.407203 -3.010342,3.134973 -4.880973,3.695146 -1.565293,0.468736 -9.647949,0.66518 -12.024176,0.292243 z m 30.152064,-0.0082 C 76.72673,82.012947 74.375424,80.402759 73.380771,77.825085 72.877683,76.521316 72.8,75.29273 72.8,68.639998 v -7.68 h 3.36 3.36 l 0.16,7.593424 0.16,7.59342 0.854067,0.853373 c 1.085267,1.084381 2.698749,1.356038 8.200554,1.380707 l 4.254621,0.01907 -0.09462,2.16 -0.09462,2.16 -5.44,0.04461 c -2.992,0.02454 -6.256918,-0.0769 -7.255373,-0.225414 z m 18.199197,0.137958 C 98.34072,82.554051 98.24,78.665396 98.24,74.035693 v -8.417635 l -4.4,-0.08903 -4.4,-0.08903 v -2.24 -2.24 h 12.32 12.32 v 2.24 2.24 l -4.39479,0.08899 -4.39479,0.089 -0.0852,8.551002 -0.0852,8.551004 -3.21618,0.09049 c -1.7689,0.04977 -3.316895,-0.01024 -3.439996,-0.133335 z m 20.721656,-0.19959 c -0.0849,-0.221338 -0.11641,-5.153338 -0.0699,-10.96 L 119.2,60.959998 h 3.2 3.2 l 0.0842,10.959999 0.0842,10.96 h -3.21424 c -2.28657,0 -3.25882,-0.116147 -3.36868,-0.402435 z m 33.54082,0.06674 C 149.35651,81.8752 146.52853,79.63025 146.01808,77.219075 145.87614,76.548576 145.76,72.615984 145.76,68.479985 v -7.52 h 3.36 3.36 l 0.16,7.52 c 0.088,4.135999 0.27252,7.743618 0.41004,8.016934 0.5857,1.164064 2.19073,1.697539 5.17684,1.720662 l 2.89312,0.0224 0.16,-8.64 0.16,-8.639999 h 3.2 3.2 l 0.16,8.639999 0.16,8.64 h 4.16 4.16 l 0.16,-8.64 0.16,-8.639999 h 3.2 3.2 v 10.879999 10.88 l -14.56,0.04655 c -8.008,0.0256 -15.16916,-0.07441 -15.9137,-0.22224 z m 36.21918,-0.06674 c -0.0849,-0.221338 -0.11641,-5.153338 -0.07,-10.96 l 0.0845,-10.557564 2.99223,-0.09244 c 1.93119,-0.05966 3.15101,0.03934 3.44,0.279184 0.36651,0.304179 0.44777,2.217996 0.44777,10.546262 0,5.596054 -0.0874,10.402422 -0.19424,10.680815 -0.15906,0.414515 -0.76932,0.506173 -3.37004,0.506173 -2.2557,0 -3.22055,-0.116595 -3.33024,-0.402435 z m 12.41031,-10.546323 0.0842,-10.971241 8.8,0.0083 c 9.83835,0.0092 10.9862,0.205613 13.43036,2.297725 2.11221,1.807977 2.34514,2.822441 2.50132,10.8939 0.0758,3.915936 0.0461,7.484928 -0.0658,7.931097 -0.20328,0.809939 -0.20874,0.811069 -3.47472,0.720115 l -3.27112,-0.09109 -0.16,-7.593424 -0.16,-7.59342 -0.88637,-0.886579 c -0.87521,-0.875421 -0.94461,-0.887879 -5.51472,-0.990096 l -4.62837,-0.103524 -0.0853,8.583523 -0.0853,8.58352 -3.28421,0.09124 -3.28422,0.09124 z m 36.97568,10.351398 c -5.51031,-1.437414 -8.92015,-5.950771 -8.47823,-11.221987 0.3326,-3.967321 2.44432,-6.975049 6.09739,-8.684521 2.8703,-1.343181 4.65765,-1.576131 12.09305,-1.576131 H 254.72 l -0.002,0.72 c -0.003,1.397395 -0.67466,3.117296 -1.37221,3.516233 -0.47227,0.270093 -2.79099,0.456739 -7.0037,0.563767 -5.71917,0.145302 -6.37877,0.220608 -7.18023,0.819772 -1.78995,1.338151 -2.19379,2.228688 -2.31407,5.102957 -0.0971,2.319962 -0.0147,2.849418 0.61891,3.976745 1.14992,2.046016 2.86464,2.713079 7.01309,2.728244 l 3.36,0.01229 0.16,-4.32 0.16,-4.32 2.99223,-0.09243 c 1.93119,-0.05966 3.151,0.03934 3.44,0.279184 0.35383,0.293657 0.44777,1.599801 0.44777,6.226262 0,3.220054 -0.0874,6.082422 -0.19424,6.360816 -0.29879,0.778624 -13.45846,0.705958 -16.5143,-0.09119 z m -107.95582,-8.4707 c -0.0936,-0.243981 -0.12644,-1.291479 -0.0729,-2.32777 l 0.0973,-1.88417 h 5.44 5.44 v 2.24 2.24 l -5.36706,0.08777 c -4.33968,0.07097 -5.39965,0.0029 -5.53729,-0.35583 z m 87.39287,-21.685206 c -2.49503,-0.367536 -4.94609,-1.598787 -5.84852,-2.937917 -0.96236,-1.428061 -0.97889,-4.300256 -0.0395,-6.856812 2.27577,-6.193293 9.93711,-15.605998 17.87947,-21.96669 6.20847,-4.972092 14.32504,-9.875128 19.6381,-11.8629273 3.98592,-1.491272 3.77696,-0.9300698 -0.8381,2.2508333 -13.4879,9.296465 -22.54737,17.996452 -26.18133,25.142461 -1.33242,2.620128 -1.49451,4.038182 -0.59266,5.1847 0.68673,0.873037 0.82011,0.910698 2.693,0.760359 4.33371,-0.347869 11.79523,-4.877488 18.03165,-10.946354 l 3.95066,-3.844518 0.89303,0.999482 c 1.23045,1.377116 2.31911,4.39052 2.35212,6.510651 0.0346,2.222508 -0.70089,3.420284 -4.14861,6.756246 -7.48429,7.241692 -19.71549,11.999817 -27.78934,10.810486 z"
         id="path183" />
    </g>
  </g>
</svg>
