<?xml version="1.0" encoding="UTF-8" standalone="no"?>
<!-- Created with Inkscape (http://www.inkscape.org/) -->

<svg
   width="32"
   height="32"
   viewBox="0 0 8.4666659 8.4666659"
   version="1.1"
   id="svg8"
   xmlns="http://www.w3.org/2000/svg"
   xmlns:svg="http://www.w3.org/2000/svg"
   xmlns:rdf="http://www.w3.org/1999/02/22-rdf-syntax-ns#"
   xmlns:cc="http://creativecommons.org/ns#"
   xmlns:dc="http://purl.org/dc/elements/1.1/">
  <defs
     id="defs2" />
  <metadata
     id="metadata5">
    <rdf:RDF>
      <cc:Work
         rdf:about="">
        <dc:format>image/svg+xml</dc:format>
        <dc:type
           rdf:resource="http://purl.org/dc/dcmitype/StillImage" />
      </cc:Work>
    </rdf:RDF>
  </metadata>
  <g
     id="layer1"
     transform="translate(-104.83469,-156.66491)">
    <g
       id="g826"
       transform="matrix(0.11413269,0,0,0.11413269,93.206109,149.91716)">
      <path
         style="fill:#0eafee;stroke-width:0.142388"
         d="m 149.68159,126.05124 c -7.24342,-1.05654 -12.81434,-3.76872 -18.01267,-8.76939 -2.13803,-2.05672 -5.27797,-6.35931 -7.21924,-9.89235 -2.19079,-3.98717 -3.80586,-8.729094 -2.97307,-8.729094 0.0643,0 0.37022,0.341573 0.6799,0.759051 0.80721,1.088183 0.96873,1.024823 0.87081,-0.341573 -0.0434,-0.605343 -0.10046,-1.181412 -0.12684,-1.280154 -0.0914,-0.342238 0.21388,-3.080491 0.47456,-4.256119 0.14406,-0.649728 0.50655,-1.747127 0.80553,-2.438663 0.8941,-2.068072 1.98232,-3.186207 4.96697,-5.103499 0.3489,-0.224131 0.63437,-0.507103 0.63437,-0.628826 0,-0.162493 -0.16861,-0.221934 -0.63437,-0.223641 -1.4211,-0.0052 -1.19597,-0.562477 0.39191,-0.970089 1.23294,-0.316501 4.56184,-0.321145 6.11873,-0.0085 4.50466,0.904494 8.30921,3.139347 11.48813,6.748307 3.42473,3.888019 5.20582,8.000438 5.20582,12.01988 0,1.8364 -0.23457,2.97241 -0.94625,4.58265 -1.17407,2.65643 -2.65564,4.14615 -4.86727,4.89404 -1.22581,0.41452 -3.28187,0.34883 -4.774,-0.15252 -4.059,-1.36382 -7.90247,-5.14052 -9.71153,-9.54281 -2.39919,-5.838353 -0.52121,-11.114683 4.33963,-12.192532 3.15046,-0.698584 7.21278,1.021907 9.28435,3.932143 1.40262,1.970478 2.14504,4.225611 2.15848,6.556509 0.0148,2.55761 -0.64326,4.04234 -2.40202,5.41987 -0.56577,0.44313 -0.66659,0.76072 -0.26931,0.84836 0.41056,0.0906 1.75,-0.61877 2.2573,-1.19541 1.24936,-1.42018 1.72625,-2.8412 1.72333,-5.1351 -0.004,-3.47665 -0.92547,-5.824323 -3.34081,-8.515556 -1.69157,-1.884788 -3.44787,-2.960818 -6.09748,-3.735743 -3.98848,-1.166503 -7.24578,-0.847332 -9.54621,0.935403 -1.07296,0.831498 -1.8546,1.941325 -2.4192,3.434935 -0.38418,1.01632 -0.42454,1.279575 -0.4726,3.082516 -0.0716,2.686681 0.24858,4.261935 1.34936,6.638255 1.46623,3.16523 4.95485,7.33092 8.08017,9.64837 1.85654,1.37664 4.37184,2.60828 6.23867,3.05483 0.36727,0.0879 0.94979,0.22999 1.29449,0.31587 0.34471,0.0859 1.63682,0.15509 2.87136,0.15381 1.80087,-0.002 2.45585,-0.0627 3.31304,-0.30773 3.99894,-1.14307 7.26097,-4.92198 8.36912,-9.69523 0.35769,-1.54075 0.37958,-4.39964 0.0437,-5.70707 -0.38753,-1.508437 -1.05692,-2.833296 -2.31041,-4.572764 -7.2156,-10.013071 -17.30753,-17.170621 -30.00815,-21.282836 -3.8981,-1.262132 -6.63352,-1.904276 -12.08641,-2.837309 -3.54399,-0.606404 -8.1781,-2.014599 -8.80121,-2.674476 -0.44389,-0.470091 -0.31556,-0.909675 0.38237,-1.309736 0.32774,-0.187865 0.72355,-0.341573 0.87959,-0.341573 0.15604,0 0.78936,0.413071 1.40738,0.917935 0.61803,0.504864 1.5715,1.165238 2.11883,1.467498 0.86397,0.477117 1.11925,0.548541 1.9365,0.541813 0.81768,-0.0067 1.12787,-0.100042 2.36115,-0.710266 1.91692,-0.948482 2.53089,-1.059217 5.22906,-0.943101 6.42094,0.276323 13.11494,1.930575 19.72758,4.875174 4.35308,1.938423 7.32126,3.934515 11.48543,7.723933 2.06194,1.876371 7.06299,7.521479 8.52359,9.62129 2.43122,3.495223 4.31015,7.933824 5.57416,13.167868 0.309,1.27951 0.36406,1.79247 0.35035,3.26392 -0.009,0.9602 -0.0332,1.98492 -0.0538,2.27715 -0.0838,1.18768 0.7841,0.22363 1.13782,-1.2638 0.94339,-3.96703 0.51521,-7.68224 -1.51208,-13.119954 -2.614,-7.011477 -6.59969,-12.252269 -13.92332,-18.307803 -2.25045,-1.860783 -3.69719,-2.847715 -6.53464,-4.457785 -1.37398,-0.779644 -2.53943,-1.493466 -2.58988,-1.586271 -0.13267,-0.244012 0.97714,-0.03179 2.28344,0.436636 5.45,1.95434 12.07245,6.936218 17.23459,12.965089 6.76498,7.900814 10.46629,16.745308 10.47488,25.030268 0.004,3.46691 -0.49546,5.92864 -1.68151,8.2944 -2.47432,4.93549 -6.76994,7.77283 -13.18329,8.70784 -1.44674,0.21092 -5.87752,0.1604 -7.56889,-0.0863 z m 4.25759,-2.6535 c 0.96462,-0.17792 1.66129,-0.52953 1.58152,-0.79819 -0.0374,-0.12579 -0.53805,-0.18323 -1.64452,-0.18867 -1.84191,-0.009 -3.62155,-0.18739 -3.96947,-0.39781 -0.516,-0.31207 -0.21175,-0.77701 0.97635,-1.492 1.2655,-0.76156 1.48163,-1.15946 0.60098,-1.10638 -5.80608,0.34996 -8.21681,0.13196 -11.89959,-1.07608 -2.97715,-0.97657 -4.99468,-2.05816 -4.99468,-2.67762 0,-0.27281 0.092,-0.30169 0.96825,-0.30379 1.00489,-0.002 1.40358,-0.14368 1.24236,-0.44021 -0.0517,-0.0951 -0.58525,-0.45299 -1.18569,-0.79536 -1.74803,-0.99675 -3.36562,-2.34929 -5.14643,-4.30317 -1.46015,-1.60206 -1.84357,-2.13749 -3.17982,-4.44045 -1.36607,-2.35435 -1.70808,-2.8019 -1.93983,-2.53847 -0.10067,0.11444 0.21078,1.52076 0.55021,2.48437 0.47456,1.34724 1.65127,3.56528 3.27036,6.16446 2.90147,4.65784 7.88907,8.41736 13.71169,10.33551 4.17178,1.37431 8.66954,2.01445 11.05831,1.57386 z m 4.87246,-8.10739 c 1.40949,-0.91305 2.10369,-1.58663 2.83374,-2.74957 0.74765,-1.19097 0.98656,-2.14237 0.98861,-3.9368 0.002,-2.0407 -0.65959,-5.54108 -1.04782,-5.54108 -0.0666,0 -0.15111,1.11011 -0.18769,2.46692 -0.0514,1.90559 -0.13157,2.7196 -0.35243,3.57741 -0.54052,2.09932 -1.86377,4.69116 -3.07219,6.01744 -0.97334,1.06827 -0.65328,1.13156 0.83778,0.16568 z m -14.65908,-12.2654 c 0.88736,-0.67876 1.46917,-1.59827 1.65496,-2.61556 0.66301,-3.63031 -3.28017,-8.025757 -7.21121,-8.038296 -1.76598,-0.0056 -2.95089,0.990279 -3.47556,2.921179 -0.68953,2.537665 0.17861,5.409517 1.88794,6.245377 0.50144,0.24521 0.85381,0.32009 1.2337,0.26217 1.05911,-0.16148 2.21624,-1.52216 2.22145,-2.612252 0.005,-0.974061 -0.70065,-1.548276 -2.08182,-1.694884 -0.73976,-0.07852 -0.90852,-0.151813 -1.09516,-0.475619 -0.45189,-0.783955 -0.0777,-2.412184 0.65307,-2.841744 0.77799,-0.457316 1.62199,-0.1591 2.97622,1.051602 0.43119,0.385496 0.84859,0.700901 0.92755,0.700901 0.079,0 0.30853,-0.17966 0.51017,-0.399245 0.22581,-0.245921 0.44896,-0.36332 0.58106,-0.305697 0.11795,0.05145 0.40552,0.555606 0.63904,1.120343 0.72978,1.764872 0.55796,3.680785 -0.53084,5.919185 -0.2529,0.51993 -0.42183,1.01521 -0.37539,1.10062 0.16517,0.30379 0.84933,0.14801 1.48482,-0.33808 z m 13.00742,-10.935154 c 0,-0.285907 -1.61308,-3.289891 -2.35952,-4.394049 -1.77821,-2.630378 -4.60827,-5.701991 -7.58819,-8.235849 -4.86621,-4.137799 -11.73666,-7.418072 -19.09976,-9.119106 -4.57774,-1.057559 -10.61735,-1.31803 -10.61735,-0.457896 0,0.257281 2.36382,0.972681 8.2802,2.505967 7.00016,1.814159 10.96715,3.300393 15.42521,5.779057 5.60086,3.114061 10.28769,7.087484 14.03106,11.895322 0.95042,1.220673 1.7731,2.219796 1.82819,2.220273 0.0551,4.55e-4 0.10016,-0.0867 0.10016,-0.193719 z"
         id="path830" />
    </g>
  </g>
</svg>
